G04 #@! TF.GenerationSoftware,KiCad,Pcbnew,(5.1.5-0)*
G04 #@! TF.CreationDate,2023-05-16T07:02:42+02:00*
G04 #@! TF.ProjectId,Apple1Serial,4170706c-6531-4536-9572-69616c2e6b69,rev?*
G04 #@! TF.SameCoordinates,Original*
G04 #@! TF.FileFunction,Copper,L2,Bot*
G04 #@! TF.FilePolarity,Positive*
%FSLAX46Y46*%
G04 Gerber Fmt 4.6, Leading zero omitted, Abs format (unit mm)*
G04 Created by KiCad (PCBNEW (5.1.5-0)) date 2023-05-16 07:02:42*
%MOMM*%
%LPD*%
G04 APERTURE LIST*
%ADD10C,0.150000*%
%ADD11C,4.000000*%
%ADD12C,1.600000*%
%ADD13R,1.600000X1.600000*%
%ADD14O,1.600000X2.400000*%
%ADD15R,1.600000X2.400000*%
%ADD16C,1.200000*%
%ADD17R,1.200000X1.200000*%
%ADD18O,1.700000X1.700000*%
%ADD19R,1.700000X1.700000*%
%ADD20O,2.400000X1.600000*%
%ADD21R,2.400000X1.600000*%
%ADD22O,1.600000X1.600000*%
%ADD23C,0.100000*%
%ADD24O,2.000000X1.905000*%
%ADD25R,2.000000X1.905000*%
%ADD26C,1.800000*%
%ADD27R,1.800000X1.800000*%
%ADD28C,1.500000*%
%ADD29C,0.300000*%
%ADD30C,1.300000*%
%ADD31C,0.250000*%
%ADD32C,0.500000*%
G04 APERTURE END LIST*
D10*
X63728787Y-110518960D02*
X63157359Y-110518960D01*
X63443073Y-111518960D02*
X63443073Y-110518960D01*
X62633549Y-110518960D02*
X62443073Y-110518960D01*
X62347835Y-110566580D01*
X62252597Y-110661818D01*
X62204978Y-110852294D01*
X62204978Y-111185627D01*
X62252597Y-111376103D01*
X62347835Y-111471341D01*
X62443073Y-111518960D01*
X62633549Y-111518960D01*
X62728787Y-111471341D01*
X62824025Y-111376103D01*
X62871644Y-111185627D01*
X62871644Y-110852294D01*
X62824025Y-110661818D01*
X62728787Y-110566580D01*
X62633549Y-110518960D01*
X61871644Y-110518960D02*
X61633549Y-111518960D01*
X61443073Y-110804675D01*
X61252597Y-111518960D01*
X61014501Y-110518960D01*
X60681168Y-111233246D02*
X60204978Y-111233246D01*
X60776406Y-111518960D02*
X60443073Y-110518960D01*
X60109740Y-111518960D01*
X59204978Y-111518960D02*
X59538311Y-111042770D01*
X59776406Y-111518960D02*
X59776406Y-110518960D01*
X59395454Y-110518960D01*
X59300216Y-110566580D01*
X59252597Y-110614199D01*
X59204978Y-110709437D01*
X59204978Y-110852294D01*
X59252597Y-110947532D01*
X59300216Y-110995151D01*
X59395454Y-111042770D01*
X59776406Y-111042770D01*
X58776406Y-111518960D02*
X58776406Y-110518960D01*
X58538311Y-110518960D01*
X58395454Y-110566580D01*
X58300216Y-110661818D01*
X58252597Y-110757056D01*
X58204978Y-110947532D01*
X58204978Y-111090389D01*
X58252597Y-111280865D01*
X58300216Y-111376103D01*
X58395454Y-111471341D01*
X58538311Y-111518960D01*
X58776406Y-111518960D01*
X57824025Y-111471341D02*
X57681168Y-111518960D01*
X57443073Y-111518960D01*
X57347835Y-111471341D01*
X57300216Y-111423722D01*
X57252597Y-111328484D01*
X57252597Y-111233246D01*
X57300216Y-111138008D01*
X57347835Y-111090389D01*
X57443073Y-111042770D01*
X57633549Y-110995151D01*
X57728787Y-110947532D01*
X57776406Y-110899913D01*
X57824025Y-110804675D01*
X57824025Y-110709437D01*
X57776406Y-110614199D01*
X57728787Y-110566580D01*
X57633549Y-110518960D01*
X57395454Y-110518960D01*
X57252597Y-110566580D01*
X55728787Y-110995151D02*
X55585930Y-111042770D01*
X55538311Y-111090389D01*
X55490692Y-111185627D01*
X55490692Y-111328484D01*
X55538311Y-111423722D01*
X55585930Y-111471341D01*
X55681168Y-111518960D01*
X56062120Y-111518960D01*
X56062120Y-110518960D01*
X55728787Y-110518960D01*
X55633549Y-110566580D01*
X55585930Y-110614199D01*
X55538311Y-110709437D01*
X55538311Y-110804675D01*
X55585930Y-110899913D01*
X55633549Y-110947532D01*
X55728787Y-110995151D01*
X56062120Y-110995151D01*
X54871644Y-110518960D02*
X54681168Y-110518960D01*
X54585930Y-110566580D01*
X54490692Y-110661818D01*
X54443073Y-110852294D01*
X54443073Y-111185627D01*
X54490692Y-111376103D01*
X54585930Y-111471341D01*
X54681168Y-111518960D01*
X54871644Y-111518960D01*
X54966882Y-111471341D01*
X55062120Y-111376103D01*
X55109740Y-111185627D01*
X55109740Y-110852294D01*
X55062120Y-110661818D01*
X54966882Y-110566580D01*
X54871644Y-110518960D01*
X54062120Y-111233246D02*
X53585930Y-111233246D01*
X54157359Y-111518960D02*
X53824025Y-110518960D01*
X53490692Y-111518960D01*
X52585930Y-111518960D02*
X52919263Y-111042770D01*
X53157359Y-111518960D02*
X53157359Y-110518960D01*
X52776406Y-110518960D01*
X52681168Y-110566580D01*
X52633549Y-110614199D01*
X52585930Y-110709437D01*
X52585930Y-110852294D01*
X52633549Y-110947532D01*
X52681168Y-110995151D01*
X52776406Y-111042770D01*
X53157359Y-111042770D01*
X52157359Y-111518960D02*
X52157359Y-110518960D01*
X51919263Y-110518960D01*
X51776406Y-110566580D01*
X51681168Y-110661818D01*
X51633549Y-110757056D01*
X51585930Y-110947532D01*
X51585930Y-111090389D01*
X51633549Y-111280865D01*
X51681168Y-111376103D01*
X51776406Y-111471341D01*
X51919263Y-111518960D01*
X52157359Y-111518960D01*
D11*
X58516240Y-82763760D03*
X58516240Y-57763760D03*
D12*
X55976240Y-66108760D03*
X55976240Y-68878760D03*
X55976240Y-71648760D03*
X55976240Y-74418760D03*
X58816240Y-64723760D03*
X58816240Y-67493760D03*
X58816240Y-70263760D03*
X58816240Y-73033760D03*
D13*
X58816240Y-75803760D03*
D14*
X54297580Y-94421960D03*
X72077580Y-102041960D03*
X56837580Y-94421960D03*
X69537580Y-102041960D03*
X59377580Y-94421960D03*
X66997580Y-102041960D03*
X61917580Y-94421960D03*
X64457580Y-102041960D03*
X64457580Y-94421960D03*
X61917580Y-102041960D03*
X66997580Y-94421960D03*
X59377580Y-102041960D03*
X69537580Y-94421960D03*
X56837580Y-102041960D03*
X72077580Y-94421960D03*
D15*
X54297580Y-102041960D03*
D16*
X62188340Y-90081100D03*
D17*
X64188340Y-90081100D03*
D16*
X54222900Y-90109040D03*
D17*
X56222900Y-90109040D03*
D16*
X64278260Y-106426000D03*
D17*
X62278260Y-106426000D03*
D16*
X56246780Y-106428540D03*
D17*
X54246780Y-106428540D03*
D18*
X80335120Y-83736180D03*
X77795120Y-83736180D03*
X75255120Y-83736180D03*
D19*
X72715120Y-83736180D03*
D14*
X128016000Y-53594000D03*
X143256000Y-61214000D03*
X130556000Y-53594000D03*
X140716000Y-61214000D03*
X133096000Y-53594000D03*
X138176000Y-61214000D03*
X135636000Y-53594000D03*
X135636000Y-61214000D03*
X138176000Y-53594000D03*
X133096000Y-61214000D03*
X140716000Y-53594000D03*
X130556000Y-61214000D03*
X143256000Y-53594000D03*
D15*
X128016000Y-61214000D03*
D14*
X84328000Y-71374000D03*
X91948000Y-78994000D03*
X86868000Y-71374000D03*
X89408000Y-78994000D03*
X89408000Y-71374000D03*
X86868000Y-78994000D03*
X91948000Y-71374000D03*
D15*
X84328000Y-78994000D03*
D14*
X169418000Y-96901000D03*
X197358000Y-104521000D03*
X171958000Y-96901000D03*
X194818000Y-104521000D03*
X174498000Y-96901000D03*
X192278000Y-104521000D03*
X177038000Y-96901000D03*
X189738000Y-104521000D03*
X179578000Y-96901000D03*
X187198000Y-104521000D03*
X182118000Y-96901000D03*
X184658000Y-104521000D03*
X184658000Y-96901000D03*
X182118000Y-104521000D03*
X187198000Y-96901000D03*
X179578000Y-104521000D03*
X189738000Y-96901000D03*
X177038000Y-104521000D03*
X192278000Y-96901000D03*
X174498000Y-104521000D03*
X194818000Y-96901000D03*
X171958000Y-104521000D03*
X197358000Y-96901000D03*
D15*
X169418000Y-104521000D03*
D20*
X105664000Y-71374000D03*
X98044000Y-104394000D03*
X105664000Y-73914000D03*
X98044000Y-101854000D03*
X105664000Y-76454000D03*
X98044000Y-99314000D03*
X105664000Y-78994000D03*
X98044000Y-96774000D03*
X105664000Y-81534000D03*
X98044000Y-94234000D03*
X105664000Y-84074000D03*
X98044000Y-91694000D03*
X105664000Y-86614000D03*
X98044000Y-89154000D03*
X105664000Y-89154000D03*
X98044000Y-86614000D03*
X105664000Y-91694000D03*
X98044000Y-84074000D03*
X105664000Y-94234000D03*
X98044000Y-81534000D03*
X105664000Y-96774000D03*
X98044000Y-78994000D03*
X105664000Y-99314000D03*
X98044000Y-76454000D03*
X105664000Y-101854000D03*
X98044000Y-73914000D03*
X105664000Y-104394000D03*
D21*
X98044000Y-71374000D03*
D14*
X171704000Y-69850000D03*
X204724000Y-85090000D03*
X174244000Y-69850000D03*
X202184000Y-85090000D03*
X176784000Y-69850000D03*
X199644000Y-85090000D03*
X179324000Y-69850000D03*
X197104000Y-85090000D03*
X181864000Y-69850000D03*
X194564000Y-85090000D03*
X184404000Y-69850000D03*
X192024000Y-85090000D03*
X186944000Y-69850000D03*
X189484000Y-85090000D03*
X189484000Y-69850000D03*
X186944000Y-85090000D03*
X192024000Y-69850000D03*
X184404000Y-85090000D03*
X194564000Y-69850000D03*
X181864000Y-85090000D03*
X197104000Y-69850000D03*
X179324000Y-85090000D03*
X199644000Y-69850000D03*
X176784000Y-85090000D03*
X202184000Y-69850000D03*
X174244000Y-85090000D03*
X204724000Y-69850000D03*
D15*
X171704000Y-85090000D03*
D14*
X114808000Y-77470000D03*
X132588000Y-85090000D03*
X117348000Y-77470000D03*
X130048000Y-85090000D03*
X119888000Y-77470000D03*
X127508000Y-85090000D03*
X122428000Y-77470000D03*
X124968000Y-85090000D03*
X124968000Y-77470000D03*
X122428000Y-85090000D03*
X127508000Y-77470000D03*
X119888000Y-85090000D03*
X130048000Y-77470000D03*
X117348000Y-85090000D03*
X132588000Y-77470000D03*
D15*
X114808000Y-85090000D03*
D14*
X138938000Y-77470000D03*
X156718000Y-85090000D03*
X141478000Y-77470000D03*
X154178000Y-85090000D03*
X144018000Y-77470000D03*
X151638000Y-85090000D03*
X146558000Y-77470000D03*
X149098000Y-85090000D03*
X149098000Y-77470000D03*
X146558000Y-85090000D03*
X151638000Y-77470000D03*
X144018000Y-85090000D03*
X154178000Y-77470000D03*
X141478000Y-85090000D03*
X156718000Y-77470000D03*
D15*
X138938000Y-85090000D03*
D14*
X114808000Y-96774000D03*
X132588000Y-104394000D03*
X117348000Y-96774000D03*
X130048000Y-104394000D03*
X119888000Y-96774000D03*
X127508000Y-104394000D03*
X122428000Y-96774000D03*
X124968000Y-104394000D03*
X124968000Y-96774000D03*
X122428000Y-104394000D03*
X127508000Y-96774000D03*
X119888000Y-104394000D03*
X130048000Y-96774000D03*
X117348000Y-104394000D03*
X132588000Y-96774000D03*
D15*
X114808000Y-104394000D03*
D14*
X138938000Y-96774000D03*
X156718000Y-104394000D03*
X141478000Y-96774000D03*
X154178000Y-104394000D03*
X144018000Y-96774000D03*
X151638000Y-104394000D03*
X146558000Y-96774000D03*
X149098000Y-104394000D03*
X149098000Y-96774000D03*
X146558000Y-104394000D03*
X151638000Y-96774000D03*
X144018000Y-104394000D03*
X154178000Y-96774000D03*
X141478000Y-104394000D03*
X156718000Y-96774000D03*
D15*
X138938000Y-104394000D03*
D12*
X136430380Y-91914980D03*
X138930380Y-91914980D03*
D22*
X155397200Y-66029840D03*
D12*
X155397200Y-73649840D03*
D16*
X202703680Y-101803200D03*
D17*
X204703680Y-101803200D03*
D12*
X174209080Y-62870080D03*
X171709080Y-62870080D03*
G04 #@! TA.AperFunction,ConnectorPad*
D23*
G36*
X117606965Y-113617563D02*
G01*
X117674771Y-113627621D01*
X117741264Y-113644277D01*
X117805804Y-113667370D01*
X117867771Y-113696678D01*
X117926566Y-113731918D01*
X117981624Y-113772752D01*
X118032414Y-113818786D01*
X118078448Y-113869576D01*
X118119282Y-113924634D01*
X118154522Y-113983429D01*
X118183830Y-114045396D01*
X118206923Y-114109936D01*
X118223579Y-114176429D01*
X118233637Y-114244235D01*
X118237000Y-114312700D01*
X118237000Y-121907300D01*
X118233637Y-121975765D01*
X118223579Y-122043571D01*
X118206923Y-122110064D01*
X118183830Y-122174604D01*
X118154522Y-122236571D01*
X118119282Y-122295366D01*
X118078448Y-122350424D01*
X118032414Y-122401214D01*
X117981624Y-122447248D01*
X117926566Y-122488082D01*
X117867771Y-122523322D01*
X117805804Y-122552630D01*
X117741264Y-122575723D01*
X117674771Y-122592379D01*
X117606965Y-122602437D01*
X117538500Y-122605800D01*
X116141500Y-122605800D01*
X116073035Y-122602437D01*
X116005229Y-122592379D01*
X115938736Y-122575723D01*
X115874196Y-122552630D01*
X115812229Y-122523322D01*
X115753434Y-122488082D01*
X115698376Y-122447248D01*
X115647586Y-122401214D01*
X115601552Y-122350424D01*
X115560718Y-122295366D01*
X115525478Y-122236571D01*
X115496170Y-122174604D01*
X115473077Y-122110064D01*
X115456421Y-122043571D01*
X115446363Y-121975765D01*
X115443000Y-121907300D01*
X115443000Y-114312700D01*
X115446363Y-114244235D01*
X115456421Y-114176429D01*
X115473077Y-114109936D01*
X115496170Y-114045396D01*
X115525478Y-113983429D01*
X115560718Y-113924634D01*
X115601552Y-113869576D01*
X115647586Y-113818786D01*
X115698376Y-113772752D01*
X115753434Y-113731918D01*
X115812229Y-113696678D01*
X115874196Y-113667370D01*
X115938736Y-113644277D01*
X116005229Y-113627621D01*
X116073035Y-113617563D01*
X116141500Y-113614200D01*
X117538500Y-113614200D01*
X117606965Y-113617563D01*
G37*
G04 #@! TD.AperFunction*
G04 #@! TA.AperFunction,ConnectorPad*
G36*
X121566965Y-113617563D02*
G01*
X121634771Y-113627621D01*
X121701264Y-113644277D01*
X121765804Y-113667370D01*
X121827771Y-113696678D01*
X121886566Y-113731918D01*
X121941624Y-113772752D01*
X121992414Y-113818786D01*
X122038448Y-113869576D01*
X122079282Y-113924634D01*
X122114522Y-113983429D01*
X122143830Y-114045396D01*
X122166923Y-114109936D01*
X122183579Y-114176429D01*
X122193637Y-114244235D01*
X122197000Y-114312700D01*
X122197000Y-121907300D01*
X122193637Y-121975765D01*
X122183579Y-122043571D01*
X122166923Y-122110064D01*
X122143830Y-122174604D01*
X122114522Y-122236571D01*
X122079282Y-122295366D01*
X122038448Y-122350424D01*
X121992414Y-122401214D01*
X121941624Y-122447248D01*
X121886566Y-122488082D01*
X121827771Y-122523322D01*
X121765804Y-122552630D01*
X121701264Y-122575723D01*
X121634771Y-122592379D01*
X121566965Y-122602437D01*
X121498500Y-122605800D01*
X120101500Y-122605800D01*
X120033035Y-122602437D01*
X119965229Y-122592379D01*
X119898736Y-122575723D01*
X119834196Y-122552630D01*
X119772229Y-122523322D01*
X119713434Y-122488082D01*
X119658376Y-122447248D01*
X119607586Y-122401214D01*
X119561552Y-122350424D01*
X119520718Y-122295366D01*
X119485478Y-122236571D01*
X119456170Y-122174604D01*
X119433077Y-122110064D01*
X119416421Y-122043571D01*
X119406363Y-121975765D01*
X119403000Y-121907300D01*
X119403000Y-114312700D01*
X119406363Y-114244235D01*
X119416421Y-114176429D01*
X119433077Y-114109936D01*
X119456170Y-114045396D01*
X119485478Y-113983429D01*
X119520718Y-113924634D01*
X119561552Y-113869576D01*
X119607586Y-113818786D01*
X119658376Y-113772752D01*
X119713434Y-113731918D01*
X119772229Y-113696678D01*
X119834196Y-113667370D01*
X119898736Y-113644277D01*
X119965229Y-113627621D01*
X120033035Y-113617563D01*
X120101500Y-113614200D01*
X121498500Y-113614200D01*
X121566965Y-113617563D01*
G37*
G04 #@! TD.AperFunction*
G04 #@! TA.AperFunction,ConnectorPad*
G36*
X125526965Y-113617563D02*
G01*
X125594771Y-113627621D01*
X125661264Y-113644277D01*
X125725804Y-113667370D01*
X125787771Y-113696678D01*
X125846566Y-113731918D01*
X125901624Y-113772752D01*
X125952414Y-113818786D01*
X125998448Y-113869576D01*
X126039282Y-113924634D01*
X126074522Y-113983429D01*
X126103830Y-114045396D01*
X126126923Y-114109936D01*
X126143579Y-114176429D01*
X126153637Y-114244235D01*
X126157000Y-114312700D01*
X126157000Y-121907300D01*
X126153637Y-121975765D01*
X126143579Y-122043571D01*
X126126923Y-122110064D01*
X126103830Y-122174604D01*
X126074522Y-122236571D01*
X126039282Y-122295366D01*
X125998448Y-122350424D01*
X125952414Y-122401214D01*
X125901624Y-122447248D01*
X125846566Y-122488082D01*
X125787771Y-122523322D01*
X125725804Y-122552630D01*
X125661264Y-122575723D01*
X125594771Y-122592379D01*
X125526965Y-122602437D01*
X125458500Y-122605800D01*
X124061500Y-122605800D01*
X123993035Y-122602437D01*
X123925229Y-122592379D01*
X123858736Y-122575723D01*
X123794196Y-122552630D01*
X123732229Y-122523322D01*
X123673434Y-122488082D01*
X123618376Y-122447248D01*
X123567586Y-122401214D01*
X123521552Y-122350424D01*
X123480718Y-122295366D01*
X123445478Y-122236571D01*
X123416170Y-122174604D01*
X123393077Y-122110064D01*
X123376421Y-122043571D01*
X123366363Y-121975765D01*
X123363000Y-121907300D01*
X123363000Y-114312700D01*
X123366363Y-114244235D01*
X123376421Y-114176429D01*
X123393077Y-114109936D01*
X123416170Y-114045396D01*
X123445478Y-113983429D01*
X123480718Y-113924634D01*
X123521552Y-113869576D01*
X123567586Y-113818786D01*
X123618376Y-113772752D01*
X123673434Y-113731918D01*
X123732229Y-113696678D01*
X123794196Y-113667370D01*
X123858736Y-113644277D01*
X123925229Y-113627621D01*
X123993035Y-113617563D01*
X124061500Y-113614200D01*
X125458500Y-113614200D01*
X125526965Y-113617563D01*
G37*
G04 #@! TD.AperFunction*
G04 #@! TA.AperFunction,ConnectorPad*
G36*
X129486965Y-113617563D02*
G01*
X129554771Y-113627621D01*
X129621264Y-113644277D01*
X129685804Y-113667370D01*
X129747771Y-113696678D01*
X129806566Y-113731918D01*
X129861624Y-113772752D01*
X129912414Y-113818786D01*
X129958448Y-113869576D01*
X129999282Y-113924634D01*
X130034522Y-113983429D01*
X130063830Y-114045396D01*
X130086923Y-114109936D01*
X130103579Y-114176429D01*
X130113637Y-114244235D01*
X130117000Y-114312700D01*
X130117000Y-121907300D01*
X130113637Y-121975765D01*
X130103579Y-122043571D01*
X130086923Y-122110064D01*
X130063830Y-122174604D01*
X130034522Y-122236571D01*
X129999282Y-122295366D01*
X129958448Y-122350424D01*
X129912414Y-122401214D01*
X129861624Y-122447248D01*
X129806566Y-122488082D01*
X129747771Y-122523322D01*
X129685804Y-122552630D01*
X129621264Y-122575723D01*
X129554771Y-122592379D01*
X129486965Y-122602437D01*
X129418500Y-122605800D01*
X128021500Y-122605800D01*
X127953035Y-122602437D01*
X127885229Y-122592379D01*
X127818736Y-122575723D01*
X127754196Y-122552630D01*
X127692229Y-122523322D01*
X127633434Y-122488082D01*
X127578376Y-122447248D01*
X127527586Y-122401214D01*
X127481552Y-122350424D01*
X127440718Y-122295366D01*
X127405478Y-122236571D01*
X127376170Y-122174604D01*
X127353077Y-122110064D01*
X127336421Y-122043571D01*
X127326363Y-121975765D01*
X127323000Y-121907300D01*
X127323000Y-114312700D01*
X127326363Y-114244235D01*
X127336421Y-114176429D01*
X127353077Y-114109936D01*
X127376170Y-114045396D01*
X127405478Y-113983429D01*
X127440718Y-113924634D01*
X127481552Y-113869576D01*
X127527586Y-113818786D01*
X127578376Y-113772752D01*
X127633434Y-113731918D01*
X127692229Y-113696678D01*
X127754196Y-113667370D01*
X127818736Y-113644277D01*
X127885229Y-113627621D01*
X127953035Y-113617563D01*
X128021500Y-113614200D01*
X129418500Y-113614200D01*
X129486965Y-113617563D01*
G37*
G04 #@! TD.AperFunction*
G04 #@! TA.AperFunction,ConnectorPad*
G36*
X133446965Y-113617563D02*
G01*
X133514771Y-113627621D01*
X133581264Y-113644277D01*
X133645804Y-113667370D01*
X133707771Y-113696678D01*
X133766566Y-113731918D01*
X133821624Y-113772752D01*
X133872414Y-113818786D01*
X133918448Y-113869576D01*
X133959282Y-113924634D01*
X133994522Y-113983429D01*
X134023830Y-114045396D01*
X134046923Y-114109936D01*
X134063579Y-114176429D01*
X134073637Y-114244235D01*
X134077000Y-114312700D01*
X134077000Y-121907300D01*
X134073637Y-121975765D01*
X134063579Y-122043571D01*
X134046923Y-122110064D01*
X134023830Y-122174604D01*
X133994522Y-122236571D01*
X133959282Y-122295366D01*
X133918448Y-122350424D01*
X133872414Y-122401214D01*
X133821624Y-122447248D01*
X133766566Y-122488082D01*
X133707771Y-122523322D01*
X133645804Y-122552630D01*
X133581264Y-122575723D01*
X133514771Y-122592379D01*
X133446965Y-122602437D01*
X133378500Y-122605800D01*
X131981500Y-122605800D01*
X131913035Y-122602437D01*
X131845229Y-122592379D01*
X131778736Y-122575723D01*
X131714196Y-122552630D01*
X131652229Y-122523322D01*
X131593434Y-122488082D01*
X131538376Y-122447248D01*
X131487586Y-122401214D01*
X131441552Y-122350424D01*
X131400718Y-122295366D01*
X131365478Y-122236571D01*
X131336170Y-122174604D01*
X131313077Y-122110064D01*
X131296421Y-122043571D01*
X131286363Y-121975765D01*
X131283000Y-121907300D01*
X131283000Y-114312700D01*
X131286363Y-114244235D01*
X131296421Y-114176429D01*
X131313077Y-114109936D01*
X131336170Y-114045396D01*
X131365478Y-113983429D01*
X131400718Y-113924634D01*
X131441552Y-113869576D01*
X131487586Y-113818786D01*
X131538376Y-113772752D01*
X131593434Y-113731918D01*
X131652229Y-113696678D01*
X131714196Y-113667370D01*
X131778736Y-113644277D01*
X131845229Y-113627621D01*
X131913035Y-113617563D01*
X131981500Y-113614200D01*
X133378500Y-113614200D01*
X133446965Y-113617563D01*
G37*
G04 #@! TD.AperFunction*
G04 #@! TA.AperFunction,ConnectorPad*
G36*
X137406965Y-113617563D02*
G01*
X137474771Y-113627621D01*
X137541264Y-113644277D01*
X137605804Y-113667370D01*
X137667771Y-113696678D01*
X137726566Y-113731918D01*
X137781624Y-113772752D01*
X137832414Y-113818786D01*
X137878448Y-113869576D01*
X137919282Y-113924634D01*
X137954522Y-113983429D01*
X137983830Y-114045396D01*
X138006923Y-114109936D01*
X138023579Y-114176429D01*
X138033637Y-114244235D01*
X138037000Y-114312700D01*
X138037000Y-121907300D01*
X138033637Y-121975765D01*
X138023579Y-122043571D01*
X138006923Y-122110064D01*
X137983830Y-122174604D01*
X137954522Y-122236571D01*
X137919282Y-122295366D01*
X137878448Y-122350424D01*
X137832414Y-122401214D01*
X137781624Y-122447248D01*
X137726566Y-122488082D01*
X137667771Y-122523322D01*
X137605804Y-122552630D01*
X137541264Y-122575723D01*
X137474771Y-122592379D01*
X137406965Y-122602437D01*
X137338500Y-122605800D01*
X135941500Y-122605800D01*
X135873035Y-122602437D01*
X135805229Y-122592379D01*
X135738736Y-122575723D01*
X135674196Y-122552630D01*
X135612229Y-122523322D01*
X135553434Y-122488082D01*
X135498376Y-122447248D01*
X135447586Y-122401214D01*
X135401552Y-122350424D01*
X135360718Y-122295366D01*
X135325478Y-122236571D01*
X135296170Y-122174604D01*
X135273077Y-122110064D01*
X135256421Y-122043571D01*
X135246363Y-121975765D01*
X135243000Y-121907300D01*
X135243000Y-114312700D01*
X135246363Y-114244235D01*
X135256421Y-114176429D01*
X135273077Y-114109936D01*
X135296170Y-114045396D01*
X135325478Y-113983429D01*
X135360718Y-113924634D01*
X135401552Y-113869576D01*
X135447586Y-113818786D01*
X135498376Y-113772752D01*
X135553434Y-113731918D01*
X135612229Y-113696678D01*
X135674196Y-113667370D01*
X135738736Y-113644277D01*
X135805229Y-113627621D01*
X135873035Y-113617563D01*
X135941500Y-113614200D01*
X137338500Y-113614200D01*
X137406965Y-113617563D01*
G37*
G04 #@! TD.AperFunction*
G04 #@! TA.AperFunction,ConnectorPad*
G36*
X141366965Y-113617563D02*
G01*
X141434771Y-113627621D01*
X141501264Y-113644277D01*
X141565804Y-113667370D01*
X141627771Y-113696678D01*
X141686566Y-113731918D01*
X141741624Y-113772752D01*
X141792414Y-113818786D01*
X141838448Y-113869576D01*
X141879282Y-113924634D01*
X141914522Y-113983429D01*
X141943830Y-114045396D01*
X141966923Y-114109936D01*
X141983579Y-114176429D01*
X141993637Y-114244235D01*
X141997000Y-114312700D01*
X141997000Y-121907300D01*
X141993637Y-121975765D01*
X141983579Y-122043571D01*
X141966923Y-122110064D01*
X141943830Y-122174604D01*
X141914522Y-122236571D01*
X141879282Y-122295366D01*
X141838448Y-122350424D01*
X141792414Y-122401214D01*
X141741624Y-122447248D01*
X141686566Y-122488082D01*
X141627771Y-122523322D01*
X141565804Y-122552630D01*
X141501264Y-122575723D01*
X141434771Y-122592379D01*
X141366965Y-122602437D01*
X141298500Y-122605800D01*
X139901500Y-122605800D01*
X139833035Y-122602437D01*
X139765229Y-122592379D01*
X139698736Y-122575723D01*
X139634196Y-122552630D01*
X139572229Y-122523322D01*
X139513434Y-122488082D01*
X139458376Y-122447248D01*
X139407586Y-122401214D01*
X139361552Y-122350424D01*
X139320718Y-122295366D01*
X139285478Y-122236571D01*
X139256170Y-122174604D01*
X139233077Y-122110064D01*
X139216421Y-122043571D01*
X139206363Y-121975765D01*
X139203000Y-121907300D01*
X139203000Y-114312700D01*
X139206363Y-114244235D01*
X139216421Y-114176429D01*
X139233077Y-114109936D01*
X139256170Y-114045396D01*
X139285478Y-113983429D01*
X139320718Y-113924634D01*
X139361552Y-113869576D01*
X139407586Y-113818786D01*
X139458376Y-113772752D01*
X139513434Y-113731918D01*
X139572229Y-113696678D01*
X139634196Y-113667370D01*
X139698736Y-113644277D01*
X139765229Y-113627621D01*
X139833035Y-113617563D01*
X139901500Y-113614200D01*
X141298500Y-113614200D01*
X141366965Y-113617563D01*
G37*
G04 #@! TD.AperFunction*
G04 #@! TA.AperFunction,ConnectorPad*
G36*
X145326965Y-113617563D02*
G01*
X145394771Y-113627621D01*
X145461264Y-113644277D01*
X145525804Y-113667370D01*
X145587771Y-113696678D01*
X145646566Y-113731918D01*
X145701624Y-113772752D01*
X145752414Y-113818786D01*
X145798448Y-113869576D01*
X145839282Y-113924634D01*
X145874522Y-113983429D01*
X145903830Y-114045396D01*
X145926923Y-114109936D01*
X145943579Y-114176429D01*
X145953637Y-114244235D01*
X145957000Y-114312700D01*
X145957000Y-121907300D01*
X145953637Y-121975765D01*
X145943579Y-122043571D01*
X145926923Y-122110064D01*
X145903830Y-122174604D01*
X145874522Y-122236571D01*
X145839282Y-122295366D01*
X145798448Y-122350424D01*
X145752414Y-122401214D01*
X145701624Y-122447248D01*
X145646566Y-122488082D01*
X145587771Y-122523322D01*
X145525804Y-122552630D01*
X145461264Y-122575723D01*
X145394771Y-122592379D01*
X145326965Y-122602437D01*
X145258500Y-122605800D01*
X143861500Y-122605800D01*
X143793035Y-122602437D01*
X143725229Y-122592379D01*
X143658736Y-122575723D01*
X143594196Y-122552630D01*
X143532229Y-122523322D01*
X143473434Y-122488082D01*
X143418376Y-122447248D01*
X143367586Y-122401214D01*
X143321552Y-122350424D01*
X143280718Y-122295366D01*
X143245478Y-122236571D01*
X143216170Y-122174604D01*
X143193077Y-122110064D01*
X143176421Y-122043571D01*
X143166363Y-121975765D01*
X143163000Y-121907300D01*
X143163000Y-114312700D01*
X143166363Y-114244235D01*
X143176421Y-114176429D01*
X143193077Y-114109936D01*
X143216170Y-114045396D01*
X143245478Y-113983429D01*
X143280718Y-113924634D01*
X143321552Y-113869576D01*
X143367586Y-113818786D01*
X143418376Y-113772752D01*
X143473434Y-113731918D01*
X143532229Y-113696678D01*
X143594196Y-113667370D01*
X143658736Y-113644277D01*
X143725229Y-113627621D01*
X143793035Y-113617563D01*
X143861500Y-113614200D01*
X145258500Y-113614200D01*
X145326965Y-113617563D01*
G37*
G04 #@! TD.AperFunction*
G04 #@! TA.AperFunction,ConnectorPad*
G36*
X149286965Y-113617563D02*
G01*
X149354771Y-113627621D01*
X149421264Y-113644277D01*
X149485804Y-113667370D01*
X149547771Y-113696678D01*
X149606566Y-113731918D01*
X149661624Y-113772752D01*
X149712414Y-113818786D01*
X149758448Y-113869576D01*
X149799282Y-113924634D01*
X149834522Y-113983429D01*
X149863830Y-114045396D01*
X149886923Y-114109936D01*
X149903579Y-114176429D01*
X149913637Y-114244235D01*
X149917000Y-114312700D01*
X149917000Y-121907300D01*
X149913637Y-121975765D01*
X149903579Y-122043571D01*
X149886923Y-122110064D01*
X149863830Y-122174604D01*
X149834522Y-122236571D01*
X149799282Y-122295366D01*
X149758448Y-122350424D01*
X149712414Y-122401214D01*
X149661624Y-122447248D01*
X149606566Y-122488082D01*
X149547771Y-122523322D01*
X149485804Y-122552630D01*
X149421264Y-122575723D01*
X149354771Y-122592379D01*
X149286965Y-122602437D01*
X149218500Y-122605800D01*
X147821500Y-122605800D01*
X147753035Y-122602437D01*
X147685229Y-122592379D01*
X147618736Y-122575723D01*
X147554196Y-122552630D01*
X147492229Y-122523322D01*
X147433434Y-122488082D01*
X147378376Y-122447248D01*
X147327586Y-122401214D01*
X147281552Y-122350424D01*
X147240718Y-122295366D01*
X147205478Y-122236571D01*
X147176170Y-122174604D01*
X147153077Y-122110064D01*
X147136421Y-122043571D01*
X147126363Y-121975765D01*
X147123000Y-121907300D01*
X147123000Y-114312700D01*
X147126363Y-114244235D01*
X147136421Y-114176429D01*
X147153077Y-114109936D01*
X147176170Y-114045396D01*
X147205478Y-113983429D01*
X147240718Y-113924634D01*
X147281552Y-113869576D01*
X147327586Y-113818786D01*
X147378376Y-113772752D01*
X147433434Y-113731918D01*
X147492229Y-113696678D01*
X147554196Y-113667370D01*
X147618736Y-113644277D01*
X147685229Y-113627621D01*
X147753035Y-113617563D01*
X147821500Y-113614200D01*
X149218500Y-113614200D01*
X149286965Y-113617563D01*
G37*
G04 #@! TD.AperFunction*
G04 #@! TA.AperFunction,ConnectorPad*
G36*
X153246965Y-113617563D02*
G01*
X153314771Y-113627621D01*
X153381264Y-113644277D01*
X153445804Y-113667370D01*
X153507771Y-113696678D01*
X153566566Y-113731918D01*
X153621624Y-113772752D01*
X153672414Y-113818786D01*
X153718448Y-113869576D01*
X153759282Y-113924634D01*
X153794522Y-113983429D01*
X153823830Y-114045396D01*
X153846923Y-114109936D01*
X153863579Y-114176429D01*
X153873637Y-114244235D01*
X153877000Y-114312700D01*
X153877000Y-121907300D01*
X153873637Y-121975765D01*
X153863579Y-122043571D01*
X153846923Y-122110064D01*
X153823830Y-122174604D01*
X153794522Y-122236571D01*
X153759282Y-122295366D01*
X153718448Y-122350424D01*
X153672414Y-122401214D01*
X153621624Y-122447248D01*
X153566566Y-122488082D01*
X153507771Y-122523322D01*
X153445804Y-122552630D01*
X153381264Y-122575723D01*
X153314771Y-122592379D01*
X153246965Y-122602437D01*
X153178500Y-122605800D01*
X151781500Y-122605800D01*
X151713035Y-122602437D01*
X151645229Y-122592379D01*
X151578736Y-122575723D01*
X151514196Y-122552630D01*
X151452229Y-122523322D01*
X151393434Y-122488082D01*
X151338376Y-122447248D01*
X151287586Y-122401214D01*
X151241552Y-122350424D01*
X151200718Y-122295366D01*
X151165478Y-122236571D01*
X151136170Y-122174604D01*
X151113077Y-122110064D01*
X151096421Y-122043571D01*
X151086363Y-121975765D01*
X151083000Y-121907300D01*
X151083000Y-114312700D01*
X151086363Y-114244235D01*
X151096421Y-114176429D01*
X151113077Y-114109936D01*
X151136170Y-114045396D01*
X151165478Y-113983429D01*
X151200718Y-113924634D01*
X151241552Y-113869576D01*
X151287586Y-113818786D01*
X151338376Y-113772752D01*
X151393434Y-113731918D01*
X151452229Y-113696678D01*
X151514196Y-113667370D01*
X151578736Y-113644277D01*
X151645229Y-113627621D01*
X151713035Y-113617563D01*
X151781500Y-113614200D01*
X153178500Y-113614200D01*
X153246965Y-113617563D01*
G37*
G04 #@! TD.AperFunction*
G04 #@! TA.AperFunction,ConnectorPad*
G36*
X157206965Y-113617563D02*
G01*
X157274771Y-113627621D01*
X157341264Y-113644277D01*
X157405804Y-113667370D01*
X157467771Y-113696678D01*
X157526566Y-113731918D01*
X157581624Y-113772752D01*
X157632414Y-113818786D01*
X157678448Y-113869576D01*
X157719282Y-113924634D01*
X157754522Y-113983429D01*
X157783830Y-114045396D01*
X157806923Y-114109936D01*
X157823579Y-114176429D01*
X157833637Y-114244235D01*
X157837000Y-114312700D01*
X157837000Y-121907300D01*
X157833637Y-121975765D01*
X157823579Y-122043571D01*
X157806923Y-122110064D01*
X157783830Y-122174604D01*
X157754522Y-122236571D01*
X157719282Y-122295366D01*
X157678448Y-122350424D01*
X157632414Y-122401214D01*
X157581624Y-122447248D01*
X157526566Y-122488082D01*
X157467771Y-122523322D01*
X157405804Y-122552630D01*
X157341264Y-122575723D01*
X157274771Y-122592379D01*
X157206965Y-122602437D01*
X157138500Y-122605800D01*
X155741500Y-122605800D01*
X155673035Y-122602437D01*
X155605229Y-122592379D01*
X155538736Y-122575723D01*
X155474196Y-122552630D01*
X155412229Y-122523322D01*
X155353434Y-122488082D01*
X155298376Y-122447248D01*
X155247586Y-122401214D01*
X155201552Y-122350424D01*
X155160718Y-122295366D01*
X155125478Y-122236571D01*
X155096170Y-122174604D01*
X155073077Y-122110064D01*
X155056421Y-122043571D01*
X155046363Y-121975765D01*
X155043000Y-121907300D01*
X155043000Y-114312700D01*
X155046363Y-114244235D01*
X155056421Y-114176429D01*
X155073077Y-114109936D01*
X155096170Y-114045396D01*
X155125478Y-113983429D01*
X155160718Y-113924634D01*
X155201552Y-113869576D01*
X155247586Y-113818786D01*
X155298376Y-113772752D01*
X155353434Y-113731918D01*
X155412229Y-113696678D01*
X155474196Y-113667370D01*
X155538736Y-113644277D01*
X155605229Y-113627621D01*
X155673035Y-113617563D01*
X155741500Y-113614200D01*
X157138500Y-113614200D01*
X157206965Y-113617563D01*
G37*
G04 #@! TD.AperFunction*
G04 #@! TA.AperFunction,ConnectorPad*
G36*
X161166965Y-113617563D02*
G01*
X161234771Y-113627621D01*
X161301264Y-113644277D01*
X161365804Y-113667370D01*
X161427771Y-113696678D01*
X161486566Y-113731918D01*
X161541624Y-113772752D01*
X161592414Y-113818786D01*
X161638448Y-113869576D01*
X161679282Y-113924634D01*
X161714522Y-113983429D01*
X161743830Y-114045396D01*
X161766923Y-114109936D01*
X161783579Y-114176429D01*
X161793637Y-114244235D01*
X161797000Y-114312700D01*
X161797000Y-121907300D01*
X161793637Y-121975765D01*
X161783579Y-122043571D01*
X161766923Y-122110064D01*
X161743830Y-122174604D01*
X161714522Y-122236571D01*
X161679282Y-122295366D01*
X161638448Y-122350424D01*
X161592414Y-122401214D01*
X161541624Y-122447248D01*
X161486566Y-122488082D01*
X161427771Y-122523322D01*
X161365804Y-122552630D01*
X161301264Y-122575723D01*
X161234771Y-122592379D01*
X161166965Y-122602437D01*
X161098500Y-122605800D01*
X159701500Y-122605800D01*
X159633035Y-122602437D01*
X159565229Y-122592379D01*
X159498736Y-122575723D01*
X159434196Y-122552630D01*
X159372229Y-122523322D01*
X159313434Y-122488082D01*
X159258376Y-122447248D01*
X159207586Y-122401214D01*
X159161552Y-122350424D01*
X159120718Y-122295366D01*
X159085478Y-122236571D01*
X159056170Y-122174604D01*
X159033077Y-122110064D01*
X159016421Y-122043571D01*
X159006363Y-121975765D01*
X159003000Y-121907300D01*
X159003000Y-114312700D01*
X159006363Y-114244235D01*
X159016421Y-114176429D01*
X159033077Y-114109936D01*
X159056170Y-114045396D01*
X159085478Y-113983429D01*
X159120718Y-113924634D01*
X159161552Y-113869576D01*
X159207586Y-113818786D01*
X159258376Y-113772752D01*
X159313434Y-113731918D01*
X159372229Y-113696678D01*
X159434196Y-113667370D01*
X159498736Y-113644277D01*
X159565229Y-113627621D01*
X159633035Y-113617563D01*
X159701500Y-113614200D01*
X161098500Y-113614200D01*
X161166965Y-113617563D01*
G37*
G04 #@! TD.AperFunction*
G04 #@! TA.AperFunction,ConnectorPad*
G36*
X165126965Y-113617563D02*
G01*
X165194771Y-113627621D01*
X165261264Y-113644277D01*
X165325804Y-113667370D01*
X165387771Y-113696678D01*
X165446566Y-113731918D01*
X165501624Y-113772752D01*
X165552414Y-113818786D01*
X165598448Y-113869576D01*
X165639282Y-113924634D01*
X165674522Y-113983429D01*
X165703830Y-114045396D01*
X165726923Y-114109936D01*
X165743579Y-114176429D01*
X165753637Y-114244235D01*
X165757000Y-114312700D01*
X165757000Y-121907300D01*
X165753637Y-121975765D01*
X165743579Y-122043571D01*
X165726923Y-122110064D01*
X165703830Y-122174604D01*
X165674522Y-122236571D01*
X165639282Y-122295366D01*
X165598448Y-122350424D01*
X165552414Y-122401214D01*
X165501624Y-122447248D01*
X165446566Y-122488082D01*
X165387771Y-122523322D01*
X165325804Y-122552630D01*
X165261264Y-122575723D01*
X165194771Y-122592379D01*
X165126965Y-122602437D01*
X165058500Y-122605800D01*
X163661500Y-122605800D01*
X163593035Y-122602437D01*
X163525229Y-122592379D01*
X163458736Y-122575723D01*
X163394196Y-122552630D01*
X163332229Y-122523322D01*
X163273434Y-122488082D01*
X163218376Y-122447248D01*
X163167586Y-122401214D01*
X163121552Y-122350424D01*
X163080718Y-122295366D01*
X163045478Y-122236571D01*
X163016170Y-122174604D01*
X162993077Y-122110064D01*
X162976421Y-122043571D01*
X162966363Y-121975765D01*
X162963000Y-121907300D01*
X162963000Y-114312700D01*
X162966363Y-114244235D01*
X162976421Y-114176429D01*
X162993077Y-114109936D01*
X163016170Y-114045396D01*
X163045478Y-113983429D01*
X163080718Y-113924634D01*
X163121552Y-113869576D01*
X163167586Y-113818786D01*
X163218376Y-113772752D01*
X163273434Y-113731918D01*
X163332229Y-113696678D01*
X163394196Y-113667370D01*
X163458736Y-113644277D01*
X163525229Y-113627621D01*
X163593035Y-113617563D01*
X163661500Y-113614200D01*
X165058500Y-113614200D01*
X165126965Y-113617563D01*
G37*
G04 #@! TD.AperFunction*
G04 #@! TA.AperFunction,ConnectorPad*
G36*
X169086965Y-113617563D02*
G01*
X169154771Y-113627621D01*
X169221264Y-113644277D01*
X169285804Y-113667370D01*
X169347771Y-113696678D01*
X169406566Y-113731918D01*
X169461624Y-113772752D01*
X169512414Y-113818786D01*
X169558448Y-113869576D01*
X169599282Y-113924634D01*
X169634522Y-113983429D01*
X169663830Y-114045396D01*
X169686923Y-114109936D01*
X169703579Y-114176429D01*
X169713637Y-114244235D01*
X169717000Y-114312700D01*
X169717000Y-121907300D01*
X169713637Y-121975765D01*
X169703579Y-122043571D01*
X169686923Y-122110064D01*
X169663830Y-122174604D01*
X169634522Y-122236571D01*
X169599282Y-122295366D01*
X169558448Y-122350424D01*
X169512414Y-122401214D01*
X169461624Y-122447248D01*
X169406566Y-122488082D01*
X169347771Y-122523322D01*
X169285804Y-122552630D01*
X169221264Y-122575723D01*
X169154771Y-122592379D01*
X169086965Y-122602437D01*
X169018500Y-122605800D01*
X167621500Y-122605800D01*
X167553035Y-122602437D01*
X167485229Y-122592379D01*
X167418736Y-122575723D01*
X167354196Y-122552630D01*
X167292229Y-122523322D01*
X167233434Y-122488082D01*
X167178376Y-122447248D01*
X167127586Y-122401214D01*
X167081552Y-122350424D01*
X167040718Y-122295366D01*
X167005478Y-122236571D01*
X166976170Y-122174604D01*
X166953077Y-122110064D01*
X166936421Y-122043571D01*
X166926363Y-121975765D01*
X166923000Y-121907300D01*
X166923000Y-114312700D01*
X166926363Y-114244235D01*
X166936421Y-114176429D01*
X166953077Y-114109936D01*
X166976170Y-114045396D01*
X167005478Y-113983429D01*
X167040718Y-113924634D01*
X167081552Y-113869576D01*
X167127586Y-113818786D01*
X167178376Y-113772752D01*
X167233434Y-113731918D01*
X167292229Y-113696678D01*
X167354196Y-113667370D01*
X167418736Y-113644277D01*
X167485229Y-113627621D01*
X167553035Y-113617563D01*
X167621500Y-113614200D01*
X169018500Y-113614200D01*
X169086965Y-113617563D01*
G37*
G04 #@! TD.AperFunction*
G04 #@! TA.AperFunction,ConnectorPad*
G36*
X173046965Y-113617563D02*
G01*
X173114771Y-113627621D01*
X173181264Y-113644277D01*
X173245804Y-113667370D01*
X173307771Y-113696678D01*
X173366566Y-113731918D01*
X173421624Y-113772752D01*
X173472414Y-113818786D01*
X173518448Y-113869576D01*
X173559282Y-113924634D01*
X173594522Y-113983429D01*
X173623830Y-114045396D01*
X173646923Y-114109936D01*
X173663579Y-114176429D01*
X173673637Y-114244235D01*
X173677000Y-114312700D01*
X173677000Y-121907300D01*
X173673637Y-121975765D01*
X173663579Y-122043571D01*
X173646923Y-122110064D01*
X173623830Y-122174604D01*
X173594522Y-122236571D01*
X173559282Y-122295366D01*
X173518448Y-122350424D01*
X173472414Y-122401214D01*
X173421624Y-122447248D01*
X173366566Y-122488082D01*
X173307771Y-122523322D01*
X173245804Y-122552630D01*
X173181264Y-122575723D01*
X173114771Y-122592379D01*
X173046965Y-122602437D01*
X172978500Y-122605800D01*
X171581500Y-122605800D01*
X171513035Y-122602437D01*
X171445229Y-122592379D01*
X171378736Y-122575723D01*
X171314196Y-122552630D01*
X171252229Y-122523322D01*
X171193434Y-122488082D01*
X171138376Y-122447248D01*
X171087586Y-122401214D01*
X171041552Y-122350424D01*
X171000718Y-122295366D01*
X170965478Y-122236571D01*
X170936170Y-122174604D01*
X170913077Y-122110064D01*
X170896421Y-122043571D01*
X170886363Y-121975765D01*
X170883000Y-121907300D01*
X170883000Y-114312700D01*
X170886363Y-114244235D01*
X170896421Y-114176429D01*
X170913077Y-114109936D01*
X170936170Y-114045396D01*
X170965478Y-113983429D01*
X171000718Y-113924634D01*
X171041552Y-113869576D01*
X171087586Y-113818786D01*
X171138376Y-113772752D01*
X171193434Y-113731918D01*
X171252229Y-113696678D01*
X171314196Y-113667370D01*
X171378736Y-113644277D01*
X171445229Y-113627621D01*
X171513035Y-113617563D01*
X171581500Y-113614200D01*
X172978500Y-113614200D01*
X173046965Y-113617563D01*
G37*
G04 #@! TD.AperFunction*
G04 #@! TA.AperFunction,ConnectorPad*
G36*
X177006965Y-113617563D02*
G01*
X177074771Y-113627621D01*
X177141264Y-113644277D01*
X177205804Y-113667370D01*
X177267771Y-113696678D01*
X177326566Y-113731918D01*
X177381624Y-113772752D01*
X177432414Y-113818786D01*
X177478448Y-113869576D01*
X177519282Y-113924634D01*
X177554522Y-113983429D01*
X177583830Y-114045396D01*
X177606923Y-114109936D01*
X177623579Y-114176429D01*
X177633637Y-114244235D01*
X177637000Y-114312700D01*
X177637000Y-121907300D01*
X177633637Y-121975765D01*
X177623579Y-122043571D01*
X177606923Y-122110064D01*
X177583830Y-122174604D01*
X177554522Y-122236571D01*
X177519282Y-122295366D01*
X177478448Y-122350424D01*
X177432414Y-122401214D01*
X177381624Y-122447248D01*
X177326566Y-122488082D01*
X177267771Y-122523322D01*
X177205804Y-122552630D01*
X177141264Y-122575723D01*
X177074771Y-122592379D01*
X177006965Y-122602437D01*
X176938500Y-122605800D01*
X175541500Y-122605800D01*
X175473035Y-122602437D01*
X175405229Y-122592379D01*
X175338736Y-122575723D01*
X175274196Y-122552630D01*
X175212229Y-122523322D01*
X175153434Y-122488082D01*
X175098376Y-122447248D01*
X175047586Y-122401214D01*
X175001552Y-122350424D01*
X174960718Y-122295366D01*
X174925478Y-122236571D01*
X174896170Y-122174604D01*
X174873077Y-122110064D01*
X174856421Y-122043571D01*
X174846363Y-121975765D01*
X174843000Y-121907300D01*
X174843000Y-114312700D01*
X174846363Y-114244235D01*
X174856421Y-114176429D01*
X174873077Y-114109936D01*
X174896170Y-114045396D01*
X174925478Y-113983429D01*
X174960718Y-113924634D01*
X175001552Y-113869576D01*
X175047586Y-113818786D01*
X175098376Y-113772752D01*
X175153434Y-113731918D01*
X175212229Y-113696678D01*
X175274196Y-113667370D01*
X175338736Y-113644277D01*
X175405229Y-113627621D01*
X175473035Y-113617563D01*
X175541500Y-113614200D01*
X176938500Y-113614200D01*
X177006965Y-113617563D01*
G37*
G04 #@! TD.AperFunction*
G04 #@! TA.AperFunction,ConnectorPad*
G36*
X180966965Y-113617563D02*
G01*
X181034771Y-113627621D01*
X181101264Y-113644277D01*
X181165804Y-113667370D01*
X181227771Y-113696678D01*
X181286566Y-113731918D01*
X181341624Y-113772752D01*
X181392414Y-113818786D01*
X181438448Y-113869576D01*
X181479282Y-113924634D01*
X181514522Y-113983429D01*
X181543830Y-114045396D01*
X181566923Y-114109936D01*
X181583579Y-114176429D01*
X181593637Y-114244235D01*
X181597000Y-114312700D01*
X181597000Y-121907300D01*
X181593637Y-121975765D01*
X181583579Y-122043571D01*
X181566923Y-122110064D01*
X181543830Y-122174604D01*
X181514522Y-122236571D01*
X181479282Y-122295366D01*
X181438448Y-122350424D01*
X181392414Y-122401214D01*
X181341624Y-122447248D01*
X181286566Y-122488082D01*
X181227771Y-122523322D01*
X181165804Y-122552630D01*
X181101264Y-122575723D01*
X181034771Y-122592379D01*
X180966965Y-122602437D01*
X180898500Y-122605800D01*
X179501500Y-122605800D01*
X179433035Y-122602437D01*
X179365229Y-122592379D01*
X179298736Y-122575723D01*
X179234196Y-122552630D01*
X179172229Y-122523322D01*
X179113434Y-122488082D01*
X179058376Y-122447248D01*
X179007586Y-122401214D01*
X178961552Y-122350424D01*
X178920718Y-122295366D01*
X178885478Y-122236571D01*
X178856170Y-122174604D01*
X178833077Y-122110064D01*
X178816421Y-122043571D01*
X178806363Y-121975765D01*
X178803000Y-121907300D01*
X178803000Y-114312700D01*
X178806363Y-114244235D01*
X178816421Y-114176429D01*
X178833077Y-114109936D01*
X178856170Y-114045396D01*
X178885478Y-113983429D01*
X178920718Y-113924634D01*
X178961552Y-113869576D01*
X179007586Y-113818786D01*
X179058376Y-113772752D01*
X179113434Y-113731918D01*
X179172229Y-113696678D01*
X179234196Y-113667370D01*
X179298736Y-113644277D01*
X179365229Y-113627621D01*
X179433035Y-113617563D01*
X179501500Y-113614200D01*
X180898500Y-113614200D01*
X180966965Y-113617563D01*
G37*
G04 #@! TD.AperFunction*
G04 #@! TA.AperFunction,ConnectorPad*
G36*
X184926965Y-113617563D02*
G01*
X184994771Y-113627621D01*
X185061264Y-113644277D01*
X185125804Y-113667370D01*
X185187771Y-113696678D01*
X185246566Y-113731918D01*
X185301624Y-113772752D01*
X185352414Y-113818786D01*
X185398448Y-113869576D01*
X185439282Y-113924634D01*
X185474522Y-113983429D01*
X185503830Y-114045396D01*
X185526923Y-114109936D01*
X185543579Y-114176429D01*
X185553637Y-114244235D01*
X185557000Y-114312700D01*
X185557000Y-121907300D01*
X185553637Y-121975765D01*
X185543579Y-122043571D01*
X185526923Y-122110064D01*
X185503830Y-122174604D01*
X185474522Y-122236571D01*
X185439282Y-122295366D01*
X185398448Y-122350424D01*
X185352414Y-122401214D01*
X185301624Y-122447248D01*
X185246566Y-122488082D01*
X185187771Y-122523322D01*
X185125804Y-122552630D01*
X185061264Y-122575723D01*
X184994771Y-122592379D01*
X184926965Y-122602437D01*
X184858500Y-122605800D01*
X183461500Y-122605800D01*
X183393035Y-122602437D01*
X183325229Y-122592379D01*
X183258736Y-122575723D01*
X183194196Y-122552630D01*
X183132229Y-122523322D01*
X183073434Y-122488082D01*
X183018376Y-122447248D01*
X182967586Y-122401214D01*
X182921552Y-122350424D01*
X182880718Y-122295366D01*
X182845478Y-122236571D01*
X182816170Y-122174604D01*
X182793077Y-122110064D01*
X182776421Y-122043571D01*
X182766363Y-121975765D01*
X182763000Y-121907300D01*
X182763000Y-114312700D01*
X182766363Y-114244235D01*
X182776421Y-114176429D01*
X182793077Y-114109936D01*
X182816170Y-114045396D01*
X182845478Y-113983429D01*
X182880718Y-113924634D01*
X182921552Y-113869576D01*
X182967586Y-113818786D01*
X183018376Y-113772752D01*
X183073434Y-113731918D01*
X183132229Y-113696678D01*
X183194196Y-113667370D01*
X183258736Y-113644277D01*
X183325229Y-113627621D01*
X183393035Y-113617563D01*
X183461500Y-113614200D01*
X184858500Y-113614200D01*
X184926965Y-113617563D01*
G37*
G04 #@! TD.AperFunction*
G04 #@! TA.AperFunction,ConnectorPad*
G36*
X188886965Y-113617563D02*
G01*
X188954771Y-113627621D01*
X189021264Y-113644277D01*
X189085804Y-113667370D01*
X189147771Y-113696678D01*
X189206566Y-113731918D01*
X189261624Y-113772752D01*
X189312414Y-113818786D01*
X189358448Y-113869576D01*
X189399282Y-113924634D01*
X189434522Y-113983429D01*
X189463830Y-114045396D01*
X189486923Y-114109936D01*
X189503579Y-114176429D01*
X189513637Y-114244235D01*
X189517000Y-114312700D01*
X189517000Y-121907300D01*
X189513637Y-121975765D01*
X189503579Y-122043571D01*
X189486923Y-122110064D01*
X189463830Y-122174604D01*
X189434522Y-122236571D01*
X189399282Y-122295366D01*
X189358448Y-122350424D01*
X189312414Y-122401214D01*
X189261624Y-122447248D01*
X189206566Y-122488082D01*
X189147771Y-122523322D01*
X189085804Y-122552630D01*
X189021264Y-122575723D01*
X188954771Y-122592379D01*
X188886965Y-122602437D01*
X188818500Y-122605800D01*
X187421500Y-122605800D01*
X187353035Y-122602437D01*
X187285229Y-122592379D01*
X187218736Y-122575723D01*
X187154196Y-122552630D01*
X187092229Y-122523322D01*
X187033434Y-122488082D01*
X186978376Y-122447248D01*
X186927586Y-122401214D01*
X186881552Y-122350424D01*
X186840718Y-122295366D01*
X186805478Y-122236571D01*
X186776170Y-122174604D01*
X186753077Y-122110064D01*
X186736421Y-122043571D01*
X186726363Y-121975765D01*
X186723000Y-121907300D01*
X186723000Y-114312700D01*
X186726363Y-114244235D01*
X186736421Y-114176429D01*
X186753077Y-114109936D01*
X186776170Y-114045396D01*
X186805478Y-113983429D01*
X186840718Y-113924634D01*
X186881552Y-113869576D01*
X186927586Y-113818786D01*
X186978376Y-113772752D01*
X187033434Y-113731918D01*
X187092229Y-113696678D01*
X187154196Y-113667370D01*
X187218736Y-113644277D01*
X187285229Y-113627621D01*
X187353035Y-113617563D01*
X187421500Y-113614200D01*
X188818500Y-113614200D01*
X188886965Y-113617563D01*
G37*
G04 #@! TD.AperFunction*
G04 #@! TA.AperFunction,ConnectorPad*
G36*
X192846965Y-113617563D02*
G01*
X192914771Y-113627621D01*
X192981264Y-113644277D01*
X193045804Y-113667370D01*
X193107771Y-113696678D01*
X193166566Y-113731918D01*
X193221624Y-113772752D01*
X193272414Y-113818786D01*
X193318448Y-113869576D01*
X193359282Y-113924634D01*
X193394522Y-113983429D01*
X193423830Y-114045396D01*
X193446923Y-114109936D01*
X193463579Y-114176429D01*
X193473637Y-114244235D01*
X193477000Y-114312700D01*
X193477000Y-121907300D01*
X193473637Y-121975765D01*
X193463579Y-122043571D01*
X193446923Y-122110064D01*
X193423830Y-122174604D01*
X193394522Y-122236571D01*
X193359282Y-122295366D01*
X193318448Y-122350424D01*
X193272414Y-122401214D01*
X193221624Y-122447248D01*
X193166566Y-122488082D01*
X193107771Y-122523322D01*
X193045804Y-122552630D01*
X192981264Y-122575723D01*
X192914771Y-122592379D01*
X192846965Y-122602437D01*
X192778500Y-122605800D01*
X191381500Y-122605800D01*
X191313035Y-122602437D01*
X191245229Y-122592379D01*
X191178736Y-122575723D01*
X191114196Y-122552630D01*
X191052229Y-122523322D01*
X190993434Y-122488082D01*
X190938376Y-122447248D01*
X190887586Y-122401214D01*
X190841552Y-122350424D01*
X190800718Y-122295366D01*
X190765478Y-122236571D01*
X190736170Y-122174604D01*
X190713077Y-122110064D01*
X190696421Y-122043571D01*
X190686363Y-121975765D01*
X190683000Y-121907300D01*
X190683000Y-114312700D01*
X190686363Y-114244235D01*
X190696421Y-114176429D01*
X190713077Y-114109936D01*
X190736170Y-114045396D01*
X190765478Y-113983429D01*
X190800718Y-113924634D01*
X190841552Y-113869576D01*
X190887586Y-113818786D01*
X190938376Y-113772752D01*
X190993434Y-113731918D01*
X191052229Y-113696678D01*
X191114196Y-113667370D01*
X191178736Y-113644277D01*
X191245229Y-113627621D01*
X191313035Y-113617563D01*
X191381500Y-113614200D01*
X192778500Y-113614200D01*
X192846965Y-113617563D01*
G37*
G04 #@! TD.AperFunction*
G04 #@! TA.AperFunction,ConnectorPad*
G36*
X196806965Y-113617563D02*
G01*
X196874771Y-113627621D01*
X196941264Y-113644277D01*
X197005804Y-113667370D01*
X197067771Y-113696678D01*
X197126566Y-113731918D01*
X197181624Y-113772752D01*
X197232414Y-113818786D01*
X197278448Y-113869576D01*
X197319282Y-113924634D01*
X197354522Y-113983429D01*
X197383830Y-114045396D01*
X197406923Y-114109936D01*
X197423579Y-114176429D01*
X197433637Y-114244235D01*
X197437000Y-114312700D01*
X197437000Y-121907300D01*
X197433637Y-121975765D01*
X197423579Y-122043571D01*
X197406923Y-122110064D01*
X197383830Y-122174604D01*
X197354522Y-122236571D01*
X197319282Y-122295366D01*
X197278448Y-122350424D01*
X197232414Y-122401214D01*
X197181624Y-122447248D01*
X197126566Y-122488082D01*
X197067771Y-122523322D01*
X197005804Y-122552630D01*
X196941264Y-122575723D01*
X196874771Y-122592379D01*
X196806965Y-122602437D01*
X196738500Y-122605800D01*
X195341500Y-122605800D01*
X195273035Y-122602437D01*
X195205229Y-122592379D01*
X195138736Y-122575723D01*
X195074196Y-122552630D01*
X195012229Y-122523322D01*
X194953434Y-122488082D01*
X194898376Y-122447248D01*
X194847586Y-122401214D01*
X194801552Y-122350424D01*
X194760718Y-122295366D01*
X194725478Y-122236571D01*
X194696170Y-122174604D01*
X194673077Y-122110064D01*
X194656421Y-122043571D01*
X194646363Y-121975765D01*
X194643000Y-121907300D01*
X194643000Y-114312700D01*
X194646363Y-114244235D01*
X194656421Y-114176429D01*
X194673077Y-114109936D01*
X194696170Y-114045396D01*
X194725478Y-113983429D01*
X194760718Y-113924634D01*
X194801552Y-113869576D01*
X194847586Y-113818786D01*
X194898376Y-113772752D01*
X194953434Y-113731918D01*
X195012229Y-113696678D01*
X195074196Y-113667370D01*
X195138736Y-113644277D01*
X195205229Y-113627621D01*
X195273035Y-113617563D01*
X195341500Y-113614200D01*
X196738500Y-113614200D01*
X196806965Y-113617563D01*
G37*
G04 #@! TD.AperFunction*
G04 #@! TA.AperFunction,ConnectorPad*
G36*
X200766965Y-113617563D02*
G01*
X200834771Y-113627621D01*
X200901264Y-113644277D01*
X200965804Y-113667370D01*
X201027771Y-113696678D01*
X201086566Y-113731918D01*
X201141624Y-113772752D01*
X201192414Y-113818786D01*
X201238448Y-113869576D01*
X201279282Y-113924634D01*
X201314522Y-113983429D01*
X201343830Y-114045396D01*
X201366923Y-114109936D01*
X201383579Y-114176429D01*
X201393637Y-114244235D01*
X201397000Y-114312700D01*
X201397000Y-121907300D01*
X201393637Y-121975765D01*
X201383579Y-122043571D01*
X201366923Y-122110064D01*
X201343830Y-122174604D01*
X201314522Y-122236571D01*
X201279282Y-122295366D01*
X201238448Y-122350424D01*
X201192414Y-122401214D01*
X201141624Y-122447248D01*
X201086566Y-122488082D01*
X201027771Y-122523322D01*
X200965804Y-122552630D01*
X200901264Y-122575723D01*
X200834771Y-122592379D01*
X200766965Y-122602437D01*
X200698500Y-122605800D01*
X199301500Y-122605800D01*
X199233035Y-122602437D01*
X199165229Y-122592379D01*
X199098736Y-122575723D01*
X199034196Y-122552630D01*
X198972229Y-122523322D01*
X198913434Y-122488082D01*
X198858376Y-122447248D01*
X198807586Y-122401214D01*
X198761552Y-122350424D01*
X198720718Y-122295366D01*
X198685478Y-122236571D01*
X198656170Y-122174604D01*
X198633077Y-122110064D01*
X198616421Y-122043571D01*
X198606363Y-121975765D01*
X198603000Y-121907300D01*
X198603000Y-114312700D01*
X198606363Y-114244235D01*
X198616421Y-114176429D01*
X198633077Y-114109936D01*
X198656170Y-114045396D01*
X198685478Y-113983429D01*
X198720718Y-113924634D01*
X198761552Y-113869576D01*
X198807586Y-113818786D01*
X198858376Y-113772752D01*
X198913434Y-113731918D01*
X198972229Y-113696678D01*
X199034196Y-113667370D01*
X199098736Y-113644277D01*
X199165229Y-113627621D01*
X199233035Y-113617563D01*
X199301500Y-113614200D01*
X200698500Y-113614200D01*
X200766965Y-113617563D01*
G37*
G04 #@! TD.AperFunction*
D12*
X82336000Y-95504000D03*
X84836000Y-95504000D03*
X82336000Y-90678000D03*
X84836000Y-90678000D03*
X161838000Y-96901000D03*
X164338000Y-96901000D03*
X122428000Y-56094000D03*
X122428000Y-53594000D03*
X112280060Y-91945460D03*
X114780060Y-91945460D03*
X136427840Y-72641460D03*
X138927840Y-72641460D03*
X112313080Y-72644000D03*
X114813080Y-72644000D03*
D24*
X186690000Y-60198000D03*
X186690000Y-57658000D03*
D25*
X186690000Y-55118000D03*
D22*
X71882000Y-70866000D03*
D12*
X71882000Y-78486000D03*
D22*
X79248000Y-70866000D03*
D12*
X79248000Y-78486000D03*
D22*
X91948000Y-67056000D03*
D12*
X91948000Y-59436000D03*
D22*
X88646000Y-67056000D03*
D12*
X88646000Y-59436000D03*
D22*
X124968000Y-66040000D03*
D12*
X124968000Y-73660000D03*
D22*
X119888000Y-66040000D03*
D12*
X119888000Y-73660000D03*
D22*
X149098000Y-66040000D03*
D12*
X149098000Y-73660000D03*
D22*
X144018000Y-66040000D03*
D12*
X144018000Y-73660000D03*
D18*
X174244000Y-57785000D03*
X171704000Y-57785000D03*
D19*
X169164000Y-57785000D03*
D26*
X71882000Y-64516000D03*
D27*
X71882000Y-67056000D03*
D26*
X79248000Y-64516000D03*
D27*
X79248000Y-67056000D03*
D28*
X91186000Y-90624000D03*
X91186000Y-95504000D03*
X110236000Y-94488000D03*
X174498000Y-87884000D03*
X110236000Y-100922000D03*
X160323001Y-56084999D03*
X160323001Y-61926999D03*
X148032999Y-56084999D03*
X133604000Y-63754000D03*
X112268000Y-63754000D03*
X108966000Y-70104000D03*
X195820030Y-110757970D03*
X160291780Y-86469220D03*
X136427840Y-81706080D03*
X155448000Y-88138000D03*
X152908000Y-111506000D03*
X148590000Y-111506000D03*
X149098000Y-90932000D03*
X202209400Y-110718600D03*
X138938000Y-81655920D03*
X164338000Y-66022220D03*
X95250000Y-83659980D03*
X76549463Y-92683543D03*
X122428000Y-89662000D03*
X108084010Y-82923990D03*
X112402010Y-82923990D03*
X134366000Y-111506000D03*
X139446000Y-111506000D03*
X117348000Y-93472000D03*
X136906000Y-67818000D03*
X192278000Y-101346000D03*
X174244000Y-99822000D03*
X177038000Y-101346000D03*
X189738000Y-101346000D03*
X71104760Y-87447120D03*
X72616060Y-89011760D03*
X174498000Y-91440000D03*
X116332000Y-59690000D03*
X174498000Y-89662000D03*
X116332000Y-61722000D03*
X129540000Y-57150000D03*
X116332000Y-57912000D03*
X162306000Y-63246000D03*
X162306000Y-91186000D03*
X116206270Y-54989730D03*
X92626180Y-109415580D03*
X153670000Y-108458000D03*
X157734000Y-108458000D03*
X211328000Y-65278000D03*
X211328000Y-65278000D03*
X199644000Y-110744000D03*
X174498000Y-93218000D03*
X145973800Y-59949080D03*
X165532500Y-104826500D03*
X162611500Y-107747500D03*
D29*
X110236000Y-100922000D02*
X110236000Y-100922000D01*
X110236000Y-94488000D02*
X110236000Y-100922000D01*
X187198000Y-95401000D02*
X179681000Y-87884000D01*
X187198000Y-96901000D02*
X187198000Y-95401000D01*
X179681000Y-87884000D02*
X174498000Y-87884000D01*
X174498000Y-87884000D02*
X174498000Y-87884000D01*
X140600000Y-118110000D02*
X140600000Y-113908000D01*
X146558000Y-107950000D02*
X146558000Y-104394000D01*
X140600000Y-113908000D02*
X146558000Y-107950000D01*
X142628010Y-98964010D02*
X142628010Y-88526010D01*
X146558000Y-102894000D02*
X142628010Y-98964010D01*
X146558000Y-104394000D02*
X146558000Y-102894000D01*
X141478000Y-87376000D02*
X141478000Y-85090000D01*
X142628010Y-88526010D02*
X141478000Y-87376000D01*
X141478000Y-83590000D02*
X141478000Y-85090000D01*
X144034010Y-81033990D02*
X141478000Y-83590000D01*
X195040010Y-81033990D02*
X144034010Y-81033990D01*
X204724000Y-71350000D02*
X195040010Y-81033990D01*
X204724000Y-69850000D02*
X204724000Y-71350000D01*
D30*
X91948000Y-78994000D02*
X91948000Y-79394000D01*
X160323001Y-56084999D02*
X160323001Y-61926999D01*
X160323001Y-61926999D02*
X160323001Y-61926999D01*
X161838000Y-99274000D02*
X156718000Y-104394000D01*
X161838000Y-96901000D02*
X161838000Y-99274000D01*
X82336000Y-95504000D02*
X86654000Y-99822000D01*
X92964000Y-99822000D02*
X95250000Y-97536000D01*
X86654000Y-99822000D02*
X92964000Y-99822000D01*
X95544000Y-89154000D02*
X98044000Y-89154000D01*
X95250000Y-89448000D02*
X95544000Y-89154000D01*
X95250000Y-97536000D02*
X95250000Y-89448000D01*
X82336000Y-90678000D02*
X82336000Y-95504000D01*
D29*
X174244000Y-85490000D02*
X174244000Y-85090000D01*
D30*
X143256000Y-63754000D02*
X141478000Y-63754000D01*
X141478000Y-63754000D02*
X133604000Y-63754000D01*
X133604000Y-63754000D02*
X133604000Y-63754000D01*
X133604000Y-63754000D02*
X112268000Y-63754000D01*
X112268000Y-63754000D02*
X112268000Y-63754000D01*
X103632000Y-63754000D02*
X97028000Y-57150000D01*
X97028000Y-57150000D02*
X83312000Y-57150000D01*
X83312000Y-57150000D02*
X78994000Y-61468000D01*
X78994000Y-61468000D02*
X78740000Y-61722000D01*
X72085998Y-61722000D02*
X69088000Y-64719998D01*
X78740000Y-61722000D02*
X72085998Y-61722000D01*
X69088000Y-82296000D02*
X69088000Y-84836000D01*
X69088000Y-64719998D02*
X69088000Y-82296000D01*
X69088000Y-82296000D02*
X69088000Y-83240002D01*
D29*
X161838000Y-96901000D02*
X159679000Y-94742000D01*
X146558000Y-95274000D02*
X146558000Y-96774000D01*
X147090000Y-94742000D02*
X146558000Y-95274000D01*
X159679000Y-94742000D02*
X147090000Y-94742000D01*
X136184000Y-91948000D02*
X136184000Y-98592000D01*
X136184000Y-98592000D02*
X139954000Y-102362000D01*
X144018000Y-102894000D02*
X144018000Y-104394000D01*
X143486000Y-102362000D02*
X144018000Y-102894000D01*
X139954000Y-102362000D02*
X143486000Y-102362000D01*
D30*
X105664000Y-86614000D02*
X105918000Y-86614000D01*
X105664000Y-86614000D02*
X106720000Y-86614000D01*
X202692000Y-89622000D02*
X204724000Y-87590000D01*
X204724000Y-87590000D02*
X204724000Y-85090000D01*
X202692000Y-103886000D02*
X202692000Y-89622000D01*
X112268000Y-63754000D02*
X103632000Y-63754000D01*
X108966000Y-70104000D02*
X108966000Y-72136000D01*
X108966000Y-72136000D02*
X109474000Y-72644000D01*
X192080000Y-114356000D02*
X192024000Y-114300000D01*
X192080000Y-118110000D02*
X192080000Y-114356000D01*
X192080000Y-118110000D02*
X192024000Y-114300000D01*
D29*
X125730000Y-94742000D02*
X122960000Y-94742000D01*
X122960000Y-94742000D02*
X122428000Y-95274000D01*
X126357990Y-95369990D02*
X125730000Y-94742000D01*
X122428000Y-95274000D02*
X122428000Y-96774000D01*
X127000000Y-98806000D02*
X126357990Y-98163990D01*
X126357990Y-98163990D02*
X126357990Y-95369990D01*
X129540000Y-98806000D02*
X127000000Y-98806000D01*
X130048000Y-98298000D02*
X129540000Y-98806000D01*
X130048000Y-96774000D02*
X130048000Y-98298000D01*
D30*
X143256000Y-61214000D02*
X143256000Y-63754000D01*
X202692000Y-103886000D02*
X197618350Y-108959650D01*
X197618350Y-108959650D02*
X195820030Y-110757970D01*
X195820030Y-110757970D02*
X192024000Y-114554000D01*
X145624002Y-63754000D02*
X143256000Y-63754000D01*
X148032999Y-61345003D02*
X145624002Y-63754000D01*
X148032999Y-56084999D02*
X148032999Y-61345003D01*
D29*
X174244000Y-83590000D02*
X173688030Y-83034030D01*
X174244000Y-85090000D02*
X174244000Y-83590000D01*
X173688030Y-83034030D02*
X163726970Y-83034030D01*
X163726970Y-83034030D02*
X160291780Y-86469220D01*
X160291780Y-86469220D02*
X160291780Y-86469220D01*
D30*
X132588000Y-88072600D02*
X136430380Y-91914980D01*
X132588000Y-85090000D02*
X132588000Y-88072600D01*
X106948600Y-86614000D02*
X112280060Y-91945460D01*
X105664000Y-86614000D02*
X106948600Y-86614000D01*
X109474000Y-72644000D02*
X112313080Y-72644000D01*
X133043920Y-85090000D02*
X136427840Y-81706080D01*
X132588000Y-85090000D02*
X133043920Y-85090000D01*
X197358000Y-108699300D02*
X197358000Y-104521000D01*
X197618350Y-108959650D02*
X197358000Y-108699300D01*
D31*
X69088000Y-84836000D02*
X69227700Y-84836000D01*
D30*
X77851000Y-90678000D02*
X77795120Y-90622120D01*
X77795120Y-90622120D02*
X77795120Y-83736180D01*
X77851000Y-90678000D02*
X82336000Y-90678000D01*
X69088000Y-85608160D02*
X69088000Y-84836000D01*
X91948000Y-81066000D02*
X91948000Y-78994000D01*
X82336000Y-90678000D02*
X91948000Y-81066000D01*
X65812752Y-85608160D02*
X62188340Y-89232572D01*
X62188340Y-89232572D02*
X62188340Y-90081100D01*
X69088000Y-85608160D02*
X65812752Y-85608160D01*
X69084238Y-64723760D02*
X58816240Y-64723760D01*
X69088000Y-64719998D02*
X69084238Y-64723760D01*
X72781160Y-85608160D02*
X77795120Y-90622120D01*
X69088000Y-85608160D02*
X72781160Y-85608160D01*
D29*
X197104000Y-85090000D02*
X197104000Y-85603641D01*
X197104000Y-83590000D02*
X196048020Y-82534020D01*
X197104000Y-85090000D02*
X197104000Y-83590000D01*
X196048020Y-82534020D02*
X161300339Y-82534020D01*
X158496000Y-85338359D02*
X158496000Y-86868000D01*
X158496000Y-86868000D02*
X158496000Y-87376000D01*
X158496000Y-87376000D02*
X157734000Y-88138000D01*
X157734000Y-88138000D02*
X155448000Y-88138000D01*
X155448000Y-88138000D02*
X155448000Y-88138000D01*
X155567990Y-108592010D02*
X155567990Y-100210010D01*
X152908000Y-111252000D02*
X155567990Y-108592010D01*
X156718000Y-99060000D02*
X156718000Y-96774000D01*
X155567990Y-100210010D02*
X156718000Y-99060000D01*
X161300339Y-82534020D02*
X158496000Y-85338359D01*
X146558000Y-83590000D02*
X146558000Y-85090000D01*
X200128000Y-81534000D02*
X148614000Y-81534000D01*
X202184000Y-83590000D02*
X200128000Y-81534000D01*
X148614000Y-81534000D02*
X146558000Y-83590000D01*
X202184000Y-85090000D02*
X202184000Y-83590000D01*
X148590000Y-111506000D02*
X154178000Y-105918000D01*
X154178000Y-105918000D02*
X154178000Y-104394000D01*
X144018000Y-95274000D02*
X146836000Y-92456000D01*
X144018000Y-96774000D02*
X144018000Y-95274000D01*
X146836000Y-92456000D02*
X150114000Y-92456000D01*
X154178000Y-88392000D02*
X154178000Y-85090000D01*
X150114000Y-92456000D02*
X154178000Y-88392000D01*
X144560000Y-118110000D02*
X144560000Y-113826000D01*
X147947990Y-110438010D02*
X147947990Y-99702010D01*
X144560000Y-113826000D02*
X147947990Y-110438010D01*
X149098000Y-98552000D02*
X149098000Y-96774000D01*
X147947990Y-99702010D02*
X149098000Y-98552000D01*
X151638000Y-88392000D02*
X151638000Y-85090000D01*
X149098000Y-90932000D02*
X149098000Y-90932000D01*
X199644000Y-83590000D02*
X198088010Y-82034010D01*
X199644000Y-85090000D02*
X199644000Y-83590000D01*
X151638000Y-83590000D02*
X151638000Y-85090000D01*
X153193990Y-82034010D02*
X151638000Y-83590000D01*
X198088010Y-82034010D02*
X153193990Y-82034010D01*
X149098000Y-90932000D02*
X151638000Y-88392000D01*
D30*
X151130000Y-66040000D02*
X149098000Y-66040000D01*
X149098000Y-66040000D02*
X144018000Y-66040000D01*
X124968000Y-66040000D02*
X119888000Y-66040000D01*
X119888000Y-66040000D02*
X118364000Y-66040000D01*
X118364000Y-66040000D02*
X102870000Y-66040000D01*
X96266000Y-59436000D02*
X91948000Y-59436000D01*
X102870000Y-66040000D02*
X96266000Y-59436000D01*
X91948000Y-59436000D02*
X88646000Y-59436000D01*
X84328000Y-59436000D02*
X79248000Y-64516000D01*
X88646000Y-59436000D02*
X84328000Y-59436000D01*
X79248000Y-64516000D02*
X71882000Y-64516000D01*
X84328000Y-68874000D02*
X84328000Y-71374000D01*
X84328000Y-68323208D02*
X84328000Y-68874000D01*
X80520792Y-64516000D02*
X84328000Y-68323208D01*
X79248000Y-64516000D02*
X80520792Y-64516000D01*
X95250000Y-68072000D02*
X95250000Y-83659980D01*
X95544000Y-86614000D02*
X98044000Y-86614000D01*
X97282000Y-66040000D02*
X95250000Y-68072000D01*
X95250000Y-86320000D02*
X95544000Y-86614000D01*
X102870000Y-66040000D02*
X97282000Y-66040000D01*
X122428000Y-53594000D02*
X128016000Y-53594000D01*
X124968000Y-66040000D02*
X132022002Y-66040000D01*
X132022002Y-66040000D02*
X138684000Y-66040000D01*
X138684000Y-66040000D02*
X141732000Y-66040000D01*
X141732000Y-66040000D02*
X144018000Y-66040000D01*
X151140160Y-66029840D02*
X151130000Y-66040000D01*
X155397200Y-66029840D02*
X151140160Y-66029840D01*
X128016000Y-53194000D02*
X128016000Y-53594000D01*
X130116000Y-51094000D02*
X128016000Y-53194000D01*
X148122000Y-51094000D02*
X130116000Y-51094000D01*
X155397200Y-58369200D02*
X148122000Y-51094000D01*
X155397200Y-66029840D02*
X155397200Y-58369200D01*
X138930380Y-90526154D02*
X138930380Y-91914980D01*
X137160000Y-88755774D02*
X138930380Y-90526154D01*
X138930380Y-96766380D02*
X138938000Y-96774000D01*
X138930380Y-91914980D02*
X138930380Y-96766380D01*
X101600000Y-106426000D02*
X101600000Y-87670000D01*
X112860890Y-101769110D02*
X106934000Y-107696000D01*
X112860890Y-94996000D02*
X112860890Y-101769110D01*
X114780060Y-93076830D02*
X112860890Y-94996000D01*
X101600000Y-87670000D02*
X100544000Y-86614000D01*
X106934000Y-107696000D02*
X102870000Y-107696000D01*
X100544000Y-86614000D02*
X98044000Y-86614000D01*
X114780060Y-91945460D02*
X114780060Y-93076830D01*
X114813080Y-77464920D02*
X114808000Y-77470000D01*
X114813080Y-72644000D02*
X114813080Y-77464920D01*
X114813080Y-69590920D02*
X114813080Y-72644000D01*
X118364000Y-66040000D02*
X114813080Y-69590920D01*
X141732000Y-69837300D02*
X138927840Y-72641460D01*
X141732000Y-66040000D02*
X141732000Y-69837300D01*
X137160000Y-83433920D02*
X137160000Y-88755774D01*
X138938000Y-81655920D02*
X137160000Y-83433920D01*
X203962000Y-108966000D02*
X202209400Y-110718600D01*
X204711999Y-108216001D02*
X203962000Y-108966000D01*
X204711999Y-90613801D02*
X204711999Y-108216001D01*
X209550000Y-85775800D02*
X204711999Y-90613801D01*
X206999840Y-66029840D02*
X209550000Y-68580000D01*
X209550000Y-68580000D02*
X209550000Y-85775800D01*
X169164000Y-65976500D02*
X169164000Y-57785000D01*
X169110660Y-66029840D02*
X169164000Y-65976500D01*
X155397200Y-66029840D02*
X169110660Y-66029840D01*
X169110660Y-66029840D02*
X206999840Y-66029840D01*
X102870000Y-107696000D02*
X101600000Y-106426000D01*
X95250000Y-83659980D02*
X95250000Y-86320000D01*
X54297580Y-94421960D02*
X54297580Y-90183720D01*
X54297580Y-96921960D02*
X54297580Y-94421960D01*
X55655840Y-98280220D02*
X54297580Y-96921960D01*
X76549463Y-95131677D02*
X73400920Y-98280220D01*
X73400920Y-98280220D02*
X55655840Y-98280220D01*
X76549463Y-92683543D02*
X76549463Y-95131677D01*
D29*
X124968000Y-97174000D02*
X124968000Y-96774000D01*
X131198010Y-105270349D02*
X131198010Y-103404010D01*
X136640000Y-110712339D02*
X131198010Y-105270349D01*
X136640000Y-118110000D02*
X136640000Y-110712339D01*
X131198010Y-103404010D02*
X127616000Y-99822000D01*
X124968000Y-98274000D02*
X124968000Y-96774000D01*
X126516000Y-99822000D02*
X124968000Y-98274000D01*
X127616000Y-99822000D02*
X126516000Y-99822000D01*
X137154359Y-80010000D02*
X190984000Y-80010000D01*
X190984000Y-80010000D02*
X199620000Y-71374000D01*
X130048000Y-75438000D02*
X132582359Y-75438000D01*
X199620000Y-71374000D02*
X199644000Y-71374000D01*
X199644000Y-71374000D02*
X199644000Y-69850000D01*
X129571651Y-75914349D02*
X130048000Y-75438000D01*
X129571651Y-75919990D02*
X129571651Y-75914349D01*
X127508000Y-83312000D02*
X128658010Y-82161990D01*
X128658010Y-76833631D02*
X129571651Y-75919990D01*
X128658010Y-82161990D02*
X128658010Y-76833631D01*
X132582359Y-75438000D02*
X137154359Y-80010000D01*
X127508000Y-85090000D02*
X127508000Y-83312000D01*
X122428000Y-89662000D02*
X124968000Y-87122000D01*
X124968000Y-87122000D02*
X124968000Y-85090000D01*
X121367340Y-89662000D02*
X122428000Y-89662000D01*
X116749998Y-89662000D02*
X121367340Y-89662000D01*
X103473990Y-85463990D02*
X112551988Y-85463990D01*
X112551988Y-85463990D02*
X116749998Y-89662000D01*
X99544000Y-81534000D02*
X103473990Y-85463990D01*
X98044000Y-81534000D02*
X99544000Y-81534000D01*
X108084010Y-82923990D02*
X112402010Y-82923990D01*
X197104000Y-69850000D02*
X197104000Y-70250000D01*
X130048000Y-106958000D02*
X130048000Y-104394000D01*
X134366000Y-111276000D02*
X130048000Y-106958000D01*
X137353479Y-79502000D02*
X188976000Y-79502000D01*
X188976000Y-79502000D02*
X197104000Y-71374000D01*
X126118010Y-79899990D02*
X126118010Y-76827990D01*
X122428000Y-83590000D02*
X126118010Y-79899990D01*
X197104000Y-71374000D02*
X197104000Y-69850000D01*
X122428000Y-85090000D02*
X122428000Y-83590000D01*
X126118010Y-76827990D02*
X128016000Y-74930000D01*
X132781479Y-74930000D02*
X137353479Y-79502000D01*
X128016000Y-74930000D02*
X132781479Y-74930000D01*
X202184000Y-71350000D02*
X193016000Y-80518000D01*
X202184000Y-69850000D02*
X202184000Y-71350000D01*
X131572000Y-80518000D02*
X130556000Y-79502000D01*
X193016000Y-80518000D02*
X131572000Y-80518000D01*
X130556000Y-79502000D02*
X130048000Y-78970000D01*
X132588000Y-98274000D02*
X132588000Y-96774000D01*
X133120000Y-98806000D02*
X132588000Y-98274000D01*
X133858000Y-98806000D02*
X133120000Y-98806000D01*
X134874000Y-99822000D02*
X133858000Y-98806000D01*
X134874000Y-106680000D02*
X134874000Y-99822000D01*
X139446000Y-111252000D02*
X134874000Y-106680000D01*
X132588000Y-95274000D02*
X131198010Y-93884010D01*
X132588000Y-96774000D02*
X132588000Y-95274000D01*
X130048000Y-78740000D02*
X130048000Y-77470000D01*
X130048000Y-78970000D02*
X130048000Y-78740000D01*
X131198010Y-80891990D02*
X131572000Y-80518000D01*
X131198010Y-93884010D02*
X131198010Y-80891990D01*
X123029459Y-90795459D02*
X127508000Y-95274000D01*
X114228059Y-90795459D02*
X123029459Y-90795459D01*
X112829521Y-93098001D02*
X113630059Y-92297463D01*
X108299999Y-93098001D02*
X112829521Y-93098001D01*
X107164000Y-94234000D02*
X108299999Y-93098001D01*
X127508000Y-95274000D02*
X127508000Y-96774000D01*
X113630059Y-91393459D02*
X114228059Y-90795459D01*
X113630059Y-92297463D02*
X113630059Y-91393459D01*
X105664000Y-94234000D02*
X107164000Y-94234000D01*
X122428000Y-104794000D02*
X122428000Y-104394000D01*
X132680000Y-113884000D02*
X131518000Y-113884000D01*
X122428000Y-103880359D02*
X116197990Y-97650349D01*
X116197990Y-97650349D02*
X116197990Y-94622010D01*
X122428000Y-104394000D02*
X122428000Y-103880359D01*
X116197990Y-94622010D02*
X117348000Y-93472000D01*
X117348000Y-93472000D02*
X117348000Y-93472000D01*
X132680000Y-118110000D02*
X132680000Y-113884000D01*
X122960000Y-106426000D02*
X122428000Y-105894000D01*
X132588000Y-112522000D02*
X126492000Y-106426000D01*
X122428000Y-105894000D02*
X122428000Y-104394000D01*
X126492000Y-106426000D02*
X122960000Y-106426000D01*
X132588000Y-113792000D02*
X132588000Y-112522000D01*
X132680000Y-113884000D02*
X132588000Y-113792000D01*
X161290000Y-78994000D02*
X186944000Y-78994000D01*
X157791700Y-75495700D02*
X161290000Y-78994000D01*
X194564000Y-71374000D02*
X194564000Y-69850000D01*
X134054299Y-75495700D02*
X157791700Y-75495700D01*
X132988589Y-74429990D02*
X134054299Y-75495700D01*
X127754010Y-74429990D02*
X132988589Y-74429990D01*
X127264030Y-74919970D02*
X127754010Y-74429990D01*
X186944000Y-78994000D02*
X194564000Y-71374000D01*
X125491671Y-74919970D02*
X127264030Y-74919970D01*
X123578010Y-76833631D02*
X125491671Y-74919970D01*
X123578010Y-78459990D02*
X123578010Y-76833631D01*
X117456000Y-84582000D02*
X123578010Y-78459990D01*
X114808000Y-84690000D02*
X114808000Y-85090000D01*
X117348000Y-82150000D02*
X114808000Y-84690000D01*
X117348000Y-77470000D02*
X117348000Y-82150000D01*
X117348000Y-71374000D02*
X117348000Y-77470000D01*
X120904000Y-67818000D02*
X117348000Y-71374000D01*
X136906000Y-67818000D02*
X120904000Y-67818000D01*
X176240000Y-118110000D02*
X176240000Y-114082000D01*
X176240000Y-118110000D02*
X176240000Y-112304000D01*
X176240000Y-112304000D02*
X179578000Y-108966000D01*
X179578000Y-108966000D02*
X179578000Y-104521000D01*
X180200000Y-118110000D02*
X180340000Y-113792000D01*
X180200000Y-113932000D02*
X180340000Y-113792000D01*
X180200000Y-118110000D02*
X180200000Y-113932000D01*
X180200000Y-118110000D02*
X180200000Y-112408000D01*
X184658000Y-107950000D02*
X184658000Y-104521000D01*
X180200000Y-112408000D02*
X184658000Y-107950000D01*
X168320000Y-118110000D02*
X166923000Y-116713000D01*
X168320000Y-110425339D02*
X173347990Y-105397349D01*
X168320000Y-118110000D02*
X168320000Y-110425339D01*
X174546640Y-102446001D02*
X191177999Y-102446001D01*
X173347990Y-103644651D02*
X174546640Y-102446001D01*
X173347990Y-105397349D02*
X173347990Y-103644651D01*
X191177999Y-102446001D02*
X192278000Y-101346000D01*
X192278000Y-101346000D02*
X192278000Y-101346000D01*
X184160000Y-118110000D02*
X184160000Y-113802000D01*
X184160000Y-113802000D02*
X184243000Y-113802000D01*
X184160000Y-118110000D02*
X184160000Y-112258000D01*
X189738000Y-106680000D02*
X189738000Y-104521000D01*
X184160000Y-112258000D02*
X189738000Y-106680000D01*
X194818000Y-98401000D02*
X194818000Y-96901000D01*
X193397000Y-99822000D02*
X194818000Y-98401000D01*
X174244000Y-99822000D02*
X193397000Y-99822000D01*
X188120000Y-118110000D02*
X188120000Y-113886000D01*
X188120000Y-113886000D02*
X188214000Y-113792000D01*
X194818000Y-106021000D02*
X194818000Y-104521000D01*
X194818000Y-106916200D02*
X194818000Y-106021000D01*
X188120000Y-113614200D02*
X194818000Y-106916200D01*
X188120000Y-118110000D02*
X188120000Y-113614200D01*
X189738000Y-101346000D02*
X189738000Y-101346000D01*
X177038000Y-101346000D02*
X189484000Y-101346000D01*
X189738000Y-101346000D02*
X189484000Y-101346000D01*
X172280000Y-118110000D02*
X172280000Y-113978000D01*
X172280000Y-118110000D02*
X172280000Y-112200000D01*
X174498000Y-109982000D02*
X174498000Y-104521000D01*
X172280000Y-112200000D02*
X174498000Y-109982000D01*
X81280000Y-79248000D02*
X80264000Y-80264000D01*
X82804000Y-76708000D02*
X81280000Y-78232000D01*
X81280000Y-78232000D02*
X81280000Y-79248000D01*
X91948000Y-72874000D02*
X88622000Y-76200000D01*
X88622000Y-76200000D02*
X88622000Y-76224000D01*
X88138000Y-76708000D02*
X82804000Y-76708000D01*
X88622000Y-76224000D02*
X88138000Y-76708000D01*
X91948000Y-71374000D02*
X91948000Y-72874000D01*
X74796000Y-80264000D02*
X80264000Y-80264000D01*
X72715120Y-82344880D02*
X72715120Y-83736180D01*
X74796000Y-80264000D02*
X72715120Y-82344880D01*
X64457580Y-94094300D02*
X64457580Y-94421960D01*
X71104760Y-87447120D02*
X64457580Y-94094300D01*
X75255120Y-82367120D02*
X75255120Y-83736180D01*
X87268000Y-81534000D02*
X76088240Y-81534000D01*
X76088240Y-81534000D02*
X75255120Y-82367120D01*
X89408000Y-79394000D02*
X87268000Y-81534000D01*
X89408000Y-78994000D02*
X89408000Y-79394000D01*
X67205860Y-94421960D02*
X66997580Y-94421960D01*
X72616060Y-89011760D02*
X67205860Y-94421960D01*
X140716000Y-61214000D02*
X138176000Y-61214000D01*
X182118000Y-95401000D02*
X178157000Y-91440000D01*
X182118000Y-96901000D02*
X182118000Y-95401000D01*
X178157000Y-91440000D02*
X174498000Y-91440000D01*
X174498000Y-91440000D02*
X174498000Y-91440000D01*
X138176000Y-60814000D02*
X138176000Y-61214000D01*
X137076000Y-59714000D02*
X138176000Y-60814000D01*
X134868359Y-58420000D02*
X136162359Y-59714000D01*
X119126000Y-58420000D02*
X134868359Y-58420000D01*
X136162359Y-59714000D02*
X137076000Y-59714000D01*
X119126000Y-58420000D02*
X118364000Y-58420000D01*
X118364000Y-58420000D02*
X117094000Y-59690000D01*
X117094000Y-59690000D02*
X116332000Y-59690000D01*
X116332000Y-59690000D02*
X116332000Y-59690000D01*
X184658000Y-95401000D02*
X178919000Y-89662000D01*
X184658000Y-96901000D02*
X184658000Y-95401000D01*
X178919000Y-89662000D02*
X174498000Y-89662000D01*
X174498000Y-89662000D02*
X174498000Y-89662000D01*
X133096000Y-60814000D02*
X131202010Y-58920010D01*
X133096000Y-61214000D02*
X133096000Y-60814000D01*
X131202010Y-58920010D02*
X124968000Y-58920010D01*
X124968000Y-58920010D02*
X120149990Y-58920010D01*
X120149990Y-58920010D02*
X119133990Y-58920010D01*
X119133990Y-58920010D02*
X116586000Y-61468000D01*
X116586000Y-61468000D02*
X116332000Y-61722000D01*
X116332000Y-61722000D02*
X116332000Y-61722000D01*
X143256000Y-53594000D02*
X140716000Y-53594000D01*
X129540000Y-57150000D02*
X128778000Y-57912000D01*
X128778000Y-57912000D02*
X124968000Y-57912000D01*
X124968000Y-57912000D02*
X116840000Y-57912000D01*
X116840000Y-57912000D02*
X116840000Y-57912000D01*
X116840000Y-57912000D02*
X116332000Y-57912000D01*
X162306000Y-56439996D02*
X162306000Y-63246000D01*
X162306000Y-63246000D02*
X162306000Y-63246000D01*
X174498000Y-95401000D02*
X174498000Y-96901000D01*
X171032999Y-91935999D02*
X174498000Y-95401000D01*
X162547999Y-91935999D02*
X171032999Y-91935999D01*
X161798000Y-91186000D02*
X162547999Y-91935999D01*
X121920000Y-49276000D02*
X155194000Y-49276000D01*
X155142004Y-49276000D02*
X155194000Y-49276000D01*
X155194000Y-49276000D02*
X162306000Y-56439996D01*
X116206270Y-54989730D02*
X121920000Y-49276000D01*
X116840000Y-114046000D02*
X116840000Y-118110000D01*
X112209580Y-109415580D02*
X116840000Y-114046000D01*
X92626180Y-109415580D02*
X112209580Y-109415580D01*
X148520000Y-113614200D02*
X148520000Y-118110000D01*
X149528199Y-112606001D02*
X148520000Y-113614200D01*
X149528199Y-112606001D02*
X149528199Y-112599801D01*
X149528199Y-112599801D02*
X153670000Y-108458000D01*
X153670000Y-108458000D02*
X153670000Y-108458000D01*
X171958000Y-105918000D02*
X171958000Y-106021000D01*
X171958000Y-104521000D02*
X171958000Y-105918000D01*
X171958000Y-105918000D02*
X171958000Y-106080219D01*
X171612219Y-106426000D02*
X159766000Y-106426000D01*
X171958000Y-106080219D02*
X171612219Y-106426000D01*
X157734000Y-108458000D02*
X159766000Y-106426000D01*
D30*
X196040000Y-118110000D02*
X196040000Y-114348000D01*
X196040000Y-114348000D02*
X199644000Y-110744000D01*
X211328000Y-65278000D02*
X211328000Y-56134000D01*
X211328000Y-56134000D02*
X206756000Y-51562000D01*
X186690000Y-52865500D02*
X186690000Y-55118000D01*
X187993500Y-51562000D02*
X186690000Y-52865500D01*
X206756000Y-51562000D02*
X187993500Y-51562000D01*
X199644000Y-110744000D02*
X199644000Y-110744000D01*
D29*
X177038000Y-95401000D02*
X174855000Y-93218000D01*
X177038000Y-96901000D02*
X177038000Y-95401000D01*
X174855000Y-93218000D02*
X174498000Y-93218000D01*
X174498000Y-93218000D02*
X174498000Y-93218000D01*
X133096000Y-55094000D02*
X133096000Y-53594000D01*
X137196001Y-59194001D02*
X133096000Y-55094000D01*
X145218721Y-59194001D02*
X145973800Y-59949080D01*
X137196001Y-59194001D02*
X145218721Y-59194001D01*
D30*
X176657000Y-60198000D02*
X174244000Y-57785000D01*
X186690000Y-60198000D02*
X176657000Y-60198000D01*
X71882000Y-67056000D02*
X71882000Y-70866000D01*
X79248000Y-67056000D02*
X79248000Y-70866000D01*
D29*
X138176000Y-53594000D02*
X135636000Y-53594000D01*
X155397200Y-73649840D02*
X172653960Y-73649840D01*
X174244000Y-72059800D02*
X174244000Y-69850000D01*
X172653960Y-73649840D02*
X174244000Y-72059800D01*
X171958000Y-98401000D02*
X165532500Y-104826500D01*
X171958000Y-96901000D02*
X171958000Y-98401000D01*
X155096200Y-110998000D02*
X152480000Y-113614200D01*
X152480000Y-113614200D02*
X152480000Y-118110000D01*
X159361000Y-110998000D02*
X155096200Y-110998000D01*
X162611500Y-107747500D02*
X159361000Y-110998000D01*
D32*
X59616239Y-71063759D02*
X58816240Y-70263760D01*
X60966241Y-91770621D02*
X60966241Y-72413761D01*
X60966241Y-72413761D02*
X59616239Y-71063759D01*
X61917580Y-92721960D02*
X60966241Y-91770621D01*
X61917580Y-94421960D02*
X61917580Y-92721960D01*
X54726239Y-73818759D02*
X55511238Y-73033760D01*
X57684870Y-73033760D02*
X58816240Y-73033760D01*
X55511238Y-73033760D02*
X57684870Y-73033760D01*
X59377580Y-87251102D02*
X54726239Y-82599761D01*
X54726239Y-82599761D02*
X54726239Y-73818759D01*
X59377580Y-94421960D02*
X59377580Y-87251102D01*
M02*
