M48
;FILE_FORMAT=2:4
INCH
;TYPE=PLATED
T01C0.024
T02C0.035
T03C0.047
T04C0.055
T05C0.067
T07C0.138
T08C0.173
;TYPE=NON_PLATED
T06C0.138
%
T01
X+014600Y+028550
X+013400Y+067500
X+014600Y+076500
X+016400Y+048500
X+018400Y+028550
X+019750Y+036350
X+020100Y+037400
X+018500Y+044250
Y+067750
X+022500Y+016800
X+023250Y+016450
X+021750Y+017150
X+023500Y+038100
X+023600Y+048850
X+022750
X+021750Y+058000
X+021650Y+068500
X+021400Y+075650
X+026000Y+039500
X+025250
X+024400Y+048850
X+028500Y+022000
X+029500Y+037400
X+029000Y+037750
X+028500Y+038100
X+028000Y+038450
X+027500Y+067500
X+030750Y+058500
X+032400Y+058100
X+031500
X+030750Y+057750
X+035150Y+016100
X+034150Y+015750
X+035150Y+069450
X+033750Y+070450
X+037150Y+016800
X+038150Y+017150
X+037400Y+033550
X+037600Y+087400
X+041000Y+036650
X+041400Y+056000
X+041100Y+088750
X+044500Y+058500
X+043000Y+057450
X+043350Y+075650
X+046000Y+039500
X+046600Y+056450
X+046900Y+067900
X+050000Y+028750
X+049750Y+031450
X+050250Y+034950
X+050400Y+036350
X+049600Y+038450
Y+067500
X+050250Y+067900
X+048400Y+087800
X+049100Y+088800
X+053250Y+022500
X+052750Y+028750
X+053150Y+036350
X+055950Y+037050
X+055400Y+067500
X+054600
X+059150Y+016100
Y+037000
X+057600Y+055350
X+058400Y+087700
X+059650Y+089000
X+061150Y+016800
X+062150Y+017150
X+061800Y+034600
X+060400Y+037750
X+062600Y+038100
Y+055000
X+061850Y+070100
X+061400Y+075750
X+064750Y+032500
X+063900Y+038450
X+064050Y+053050
X+065600Y+070950
X+063400
X+063900Y+075700
X+067750Y+028750
X+066900Y+049500
X+067250Y+079500
X+069750Y+015750
Y+028750
X+069400Y+034950
X+070750Y+049500
X+069850Y+054650
X+070100Y+069500
X+071050Y+069900
X+074250Y+026250
X+073500Y+049500
X+072900Y+052700
X+072400Y+069900
X+074000Y+078500
X+077400Y+016800
X+076000Y+044250
X+077400Y+043000
X+076500Y+065500
X+077350Y+070700
X+076100Y+073700
X+077100Y+081350
X+080250Y+016450
X+079500Y+015750
X+079000Y+035300
X+079750Y+034950
X+080500Y+043750
X+079500Y+044500
X+078600Y+056400
X+079350Y+055500
X+079900Y+075300
X+083150Y+034250
X+081500Y+043000
X+083350Y+070300
X+081750Y+071100
X+082600Y+073700
X+081900Y+087700
X+086600Y+017150
X+085150Y+034600
X+086000Y+034950
X+085900Y+067500
X+084650Y+068700
X+089600Y+018550
X+088750Y+032450
X+088000
X+089500
Y+033500
X+088000Y+035300
X+088750Y+057450
X+088400Y+067500
Y+074100
Y+076500
X+089600Y+075450
X+090500Y+017500
X+090300Y+033500
X+091750Y+043750
X+091600Y+086250
X+093400Y+071000
X+095600Y+087300
X+096400Y+016100
X+097900Y+054550
X+097600Y+075700
X+096550Y+088550
X+101100Y+055700
X+099350Y+055350
X+101400Y+076500
X+100900Y+076100
X+104400Y+016450
X+103350Y+056050
X+102600Y+067500
X+103900Y+067900
X+107500Y+019250
Y+040250
X+105350Y+068450
X+110600Y+030500
X+109400Y+056400
X+112400Y+016800
X+115400Y+075750
X+115000Y+085500
X+115800Y+086300
X+114950Y+088050
X+114750Y+092000
X+117500Y+058500
X+119500Y+058100
X+118100Y+068500
X+120400Y+017150
X+120500Y+058500
X+121750Y+083500
X+123500Y+019250
Y+040250
X+124250Y+056000
X+125250Y+058000
X+125400Y+067500
X+123500Y+066750
X+125400Y+086500
X+128400Y+017500
X+126600Y+029700
X+127500Y+033450
X+128500
X+127250Y+056000
X+128250
X+127400Y+076500
X+128000Y+086500
X+134600Y+029300
X+133400Y+035650
X+139500Y+019250
Y+040250
X+142600Y+028900
X+141400Y+036350
X+145900Y+036700
X+149400Y+037050
X+152100Y+018550
X+150600Y+028500
X+153600Y+037400
X+014600Y+039150
X+015700
X+019700
X+032400Y+069050
X+034950Y+057100
X+034300Y+074950
X+037400Y+057100
X+036500Y+078250
X+041150Y+018200
X+040150Y+017850
X+041000Y+056750
X+041250Y+054250
X+046900Y+033200
X+047500Y+036000
X+045400Y+039150
X+051850Y+036000
X+052900Y+038800
X+057350Y+039150
X+061250Y+051000
X+065150Y+018200
X+064150Y+017850
X+065000Y+054200
X+067800Y+032850
X+067600Y+038800
X+070250Y+039150
X+073400Y+057100
X+073750Y+074900
X+076500Y+053750
X+078500Y+045250
X+080400Y+056750
X+080500Y+074900
X+081600Y+018200
X+082400Y+017850
X+085100Y+074900
X+091750Y+044750
Y+054000
X+090750Y+081250
X+093750Y+054000
X+104400Y+056750
X+116400Y+086750
X+118600Y+030100
X+119000Y+056900
X+121150
X+136400Y+017850
X+137600Y+036000
X+024250Y+016100
X+015000Y+017000
X+017750Y+029000
X+018000Y+038200
X+024200Y+036650
X+020900Y+039500
X+021000Y+058250
X+017900Y+076100
X+036150Y+016450
X+033150Y+015750
X+027000Y+039500
X+035900Y+069450
X+036000Y+087400
X+039150Y+017500
X+042150Y+018550
X+048100Y+035600
X+044850Y+037400
X+048250Y+058500
X+045250Y+058150
Y+067900
X+039000Y+088750
X+060150Y+016450
X+060250Y+028750
X+054250Y+031800
X+050900Y+038050
X+056750Y+039500
X+060100Y+076100
X+060000Y+081500
X+063150Y+017500
X+066150Y+018550
X+072250Y+039500
X+062750Y+049500
X+066100
X+065900Y+074500
X+062900Y+076100
X+074750Y+015750
X+083750Y+020000
X+084000Y+028750
X+081000Y+031800
X+074750Y+088600
X+087000Y+034950
X+087100Y+068000
X+090250
X+104900Y+067900
X+099100Y+074400
X+129250Y+067750
Y+072500
X+030000Y+057250
X+045150Y+036000
X+042000Y+054000
X+038750Y+068750
X+044750Y+078250
X+072100Y+057100
X+092750Y+054000
X+114100Y+083950
X+144100Y+018200
T02
X+051500Y+091500
X+052500
X+053500
X+051500Y+094500
X+052500
X+053500
X+051500Y+097500
X+052500
X+053500
X+054500Y+091500
X+055500
X+056500
X+054500Y+094500
X+055500
X+056500
X+054500Y+097500
X+055500
X+056500
X+057500Y+091500
X+058500
X+059500
X+057500Y+094500
X+058500
X+059500
X+057500Y+097500
X+058500
X+059500
X+060500Y+091500
X+061500
X+062500
X+060500Y+094500
X+061500
X+062500
X+060500Y+097500
X+061500
X+062500
X+063500Y+091500
X+064500
X+065500
X+063500Y+094500
X+064500
X+065500
X+063500Y+097500
X+064500
X+065500
X+066500Y+091500
X+067500
X+068500
X+066500Y+094500
X+067500
X+068500
X+066500Y+097500
X+067500
X+068500
X+069500Y+091500
X+070500
X+071500
X+069500Y+094500
X+070500
X+071500
X+069500Y+097500
X+070500
X+071500
X+072500Y+091500
X+073500
X+074500
X+072500Y+094500
X+073500
X+074500
X+072500Y+097500
X+073500
X+074500
X+077000Y+050000
X+076000
Y+052000
X+077000
X+075500Y+091500
X+076500
X+077500
X+075500Y+094500
X+076500
X+077500
X+075500Y+097500
X+076500
X+077500
X+080000Y+050000
X+079000
X+078500Y+091500
X+079500
X+080500
X+078500Y+094500
X+079500
X+080500
X+078500Y+097500
X+079500
X+080500
X+083000Y+050000
X+082000
X+083000Y+052000
X+081500
Y+091500
X+082500
X+083500
X+081500Y+094500
X+082500
X+083500
X+081500Y+097500
X+082500
X+083500
X+086000Y+050000
X+085000
X+084500Y+052000
Y+091500
X+085500
X+086500
X+084500Y+094500
X+085500
X+086500
X+084500Y+097500
X+085500
X+086500
X+089000Y+050000
X+088000
X+087500Y+091500
X+088500
X+089500
X+087500Y+094500
X+088500
X+089500
X+087500Y+097500
X+088500
X+089500
X+091000Y+050000
Y+052000
X+090500Y+091500
X+091500
X+092500
X+090500Y+094500
X+091500
X+092500
X+090500Y+097500
X+091500
X+092500
X+093500Y+091500
X+094500
X+095500
X+093500Y+094500
X+094500
X+095500
X+093500Y+097500
X+094500
X+095500
X+096500Y+091500
X+097500
X+098500
X+096500Y+094500
X+097500
X+098500
X+096500Y+097500
X+097500
X+098500
X+099500Y+091500
X+100500
X+101500
X+099500Y+094500
X+100500
X+101500
X+099500Y+097500
X+100500
X+101500
X+102500Y+091500
X+103500
X+104500
X+102500Y+094500
X+103500
X+104500
X+102500Y+097500
X+103500
X+104500
X+028500Y+044000
Y+041000
X+031000Y+095750
X+031500Y+095000
X+032000Y+095750
X+035000Y+040250
Y+044250
X+043500Y+078250
Y+082250
X+052500Y+023500
Y+019500
X+071250Y+015000
X+100250Y+066000
Y+063000
X+106500Y+082500
Y+079500
X+123750Y+078250
Y+082250
X+034250Y+048000
Y+045000
X+083000Y+065750
Y+061750
X+015250Y+089000
X+015750Y+088250
X+016250Y+089000
X+022000Y+092000
X+025000
X+030000
X+033000
X+029500Y+093500
X+033500
X+029500Y+098000
X+033500
X+038000Y+092000
X+041000
X+046000
X+049000
X+071250Y+013750
X+076750
X+084000Y+050000
X+081000
X+078000
X+090000
X+087000
X+090000Y+052000
X+101500Y+088750
X+105500
X+101500Y+087750
X+105500
X+117000Y+050000
X+114000
X+130000Y+055500
X+122000
X+017000Y+046000
Y+045000
Y+043000
Y+042000
X+014000Y+046000
Y+045000
Y+043000
Y+042000
X+017000Y+047000
Y+044000
Y+041000
X+014000Y+044000
Y+047000
Y+041000
X+017000Y+085000
Y+083000
Y+082000
Y+080000
Y+079000
X+014000Y+085000
Y+083000
Y+082000
Y+079000
Y+080000
X+017000Y+084000
Y+081000
Y+078000
X+014000Y+084000
Y+081000
Y+078000
X+023000Y+095750
X+023500Y+095000
X+024000Y+095750
X+015086Y+091750
X+016500
X+015793Y+092457
X+022500Y+087000
X+018500
X+033000Y+048000
Y+046000
Y+045000
Y+043000
Y+042000
X+030000Y+048000
Y+046000
Y+045000
Y+042000
Y+043000
X+033000Y+047000
Y+044000
Y+041000
X+030000Y+047000
Y+044000
Y+041000
X+027500Y+040250
Y+044250
X+026000Y+095750
X+029000
X+041000Y+048000
Y+046000
Y+045000
Y+043000
Y+042000
X+038000Y+048000
Y+046000
Y+045000
Y+042000
Y+043000
X+041000Y+047000
Y+044000
Y+041000
X+038000Y+047000
Y+044000
Y+041000
X+041000Y+080000
Y+079000
X+038000
Y+080000
X+041000Y+081000
Y+078000
X+038000Y+081000
Y+078000
X+042500Y+082250
Y+078250
X+039000Y+095750
X+039500Y+095000
X+040000Y+095750
X+042000
X+045000
X+047000
X+047500Y+095000
X+048000Y+095750
X+057000Y+048000
Y+046000
Y+045000
Y+043000
Y+042000
X+054000Y+048000
Y+046000
Y+045000
Y+042000
Y+043000
X+057000Y+047000
Y+044000
Y+041000
X+054000Y+047000
Y+044000
Y+041000
X+057000Y+085000
Y+083000
Y+082000
Y+080000
Y+079000
X+054000Y+085000
Y+083000
Y+082000
Y+079000
Y+080000
X+057000Y+084000
Y+081000
Y+078000
X+054000Y+084000
Y+081000
Y+078000
X+051500Y+078250
Y+082250
X+050500
Y+078250
X+065000Y+048000
Y+046000
Y+045000
Y+043000
Y+042000
X+062000Y+048000
Y+046000
Y+045000
Y+042000
Y+043000
X+065000Y+047000
Y+044000
Y+041000
X+062000Y+047000
Y+044000
Y+041000
X+065000Y+085000
Y+083000
Y+082000
Y+080000
Y+079000
X+062000Y+085000
Y+083000
Y+082000
Y+079000
Y+080000
X+065000Y+084000
Y+081000
Y+078000
X+062000Y+084000
Y+081000
Y+078000
X+076750Y+015000
X+075500Y+045250
Y+042250
Y+083000
Y+080000
X+081000Y+085000
Y+083000
Y+082000
Y+080000
Y+079000
X+078000Y+085000
Y+083000
Y+082000
Y+079000
Y+080000
X+081000Y+084000
Y+081000
Y+078000
X+078000Y+084000
Y+081000
Y+078000
X+091250Y+066000
Y+063000
X+092500Y+068250
Y+065250
X+089000Y+083000
Y+082000
Y+080000
Y+079000
X+086000Y+083000
Y+082000
Y+080000
Y+079000
X+089000Y+084000
Y+081000
Y+078000
X+086000Y+081000
Y+084000
Y+078000
X+107500Y+048750
Y+046000
X+105000Y+048000
Y+046000
Y+045000
Y+043000
Y+042000
X+102000Y+048000
Y+046000
Y+045000
Y+042000
Y+043000
X+105000Y+047000
Y+044000
Y+041000
X+102000Y+047000
Y+044000
Y+041000
X+098750Y+068250
Y+065250
X+105000Y+083000
Y+082000
Y+080000
Y+079000
X+102000Y+083000
Y+082000
Y+080000
Y+079000
X+105000Y+084000
Y+081000
Y+078000
X+102000Y+081000
Y+084000
Y+078000
X+107750Y+082250
Y+078250
X+105000Y+089750
X+102000
X+113000Y+048000
Y+046000
Y+045000
Y+043000
Y+042000
X+110000Y+048000
Y+046000
Y+045000
Y+042000
Y+043000
X+113000Y+047000
Y+044000
Y+041000
X+110000Y+047000
Y+044000
Y+041000
X+113000Y+080000
Y+079000
X+110000
Y+080000
X+113000Y+081000
Y+078000
X+110000Y+081000
Y+078000
X+123500Y+048750
Y+046000
X+129000Y+048000
Y+046000
Y+045000
Y+043000
Y+042000
X+126000Y+048000
Y+046000
Y+045000
Y+042000
Y+043000
X+129000Y+047000
Y+044000
Y+041000
X+126000Y+047000
Y+044000
Y+041000
X+132000Y+082750
Y+079750
X+129000Y+085000
Y+083000
Y+082000
Y+080000
Y+079000
X+126000Y+085000
Y+083000
Y+082000
Y+079000
Y+080000
X+129000Y+084000
Y+081000
Y+078000
X+126000Y+084000
Y+081000
Y+078000
X+122750Y+082250
Y+078250
X+139500Y+048750
Y+046000
X+137000Y+048000
Y+046000
Y+045000
Y+043000
Y+042000
X+134000Y+048000
Y+046000
Y+045000
Y+042000
Y+043000
X+137000Y+047000
Y+044000
Y+041000
X+134000Y+047000
Y+044000
Y+041000
X+154750Y+048750
Y+046000
X+153000Y+048000
Y+046000
Y+045000
Y+043000
Y+042000
X+150000Y+048000
Y+046000
Y+045000
Y+042000
Y+043000
X+153000Y+047000
Y+044000
Y+041000
X+150000Y+047000
Y+044000
Y+041000
X+017000Y+027000
Y+025000
Y+024000
Y+022000
Y+021000
X+014000Y+027000
Y+025000
Y+024000
Y+021000
Y+022000
X+017000Y+026000
Y+023000
Y+020000
X+014000Y+026000
Y+023000
Y+020000
X+017000Y+065000
Y+064000
Y+062000
Y+061000
X+014000Y+065000
Y+064000
Y+062000
Y+061000
X+017000Y+066000
Y+063000
Y+060000
X+014000Y+063000
Y+066000
Y+060000
X+033000Y+067000
Y+065000
Y+064000
Y+062000
Y+061000
X+030000Y+067000
Y+065000
Y+064000
Y+061000
Y+062000
X+033000Y+066000
Y+063000
Y+060000
X+030000Y+066000
Y+063000
Y+060000
X+041000Y+084000
Y+083000
X+038000
Y+084000
X+041000Y+085000
Y+082000
X+038000Y+085000
Y+082000
X+041000Y+067000
Y+065000
Y+064000
Y+062000
Y+061000
X+038000Y+067000
Y+065000
Y+064000
Y+061000
Y+062000
X+041000Y+066000
Y+063000
Y+060000
X+038000Y+066000
Y+063000
Y+060000
X+057000Y+065000
Y+064000
Y+062000
Y+061000
X+054000Y+065000
Y+064000
Y+062000
Y+061000
X+057000Y+066000
Y+063000
Y+060000
X+054000Y+063000
Y+066000
Y+060000
X+065000Y+067000
Y+065000
Y+064000
Y+062000
Y+061000
X+062000Y+067000
Y+065000
Y+064000
Y+061000
Y+062000
X+065000Y+066000
Y+063000
Y+060000
X+062000Y+066000
Y+063000
Y+060000
X+075500Y+025000
Y+022000
X+081000Y+027000
Y+025000
Y+024000
Y+022000
Y+021000
X+078000Y+027000
Y+025000
Y+024000
Y+021000
Y+022000
X+081000Y+026000
Y+023000
Y+020000
X+078000Y+026000
Y+023000
Y+020000
X+075500Y+064500
Y+061500
X+081000Y+065000
Y+064000
Y+062000
Y+061000
X+078000Y+065000
Y+064000
Y+062000
Y+061000
X+081000Y+066000
Y+063000
Y+060000
X+078000Y+063000
Y+066000
Y+060000
X+089000Y+027000
Y+025000
Y+024000
Y+022000
Y+021000
X+086000Y+027000
Y+025000
Y+024000
Y+021000
Y+022000
X+089000Y+026000
Y+023000
Y+020000
X+086000Y+026000
Y+023000
Y+020000
X+089000Y+065000
Y+064000
Y+062000
Y+061000
X+086000Y+065000
Y+064000
Y+062000
Y+061000
X+089000Y+066000
Y+063000
Y+060000
X+086000Y+063000
Y+066000
Y+060000
X+107500Y+027750
Y+025000
X+105000Y+027000
Y+025000
Y+024000
Y+022000
Y+021000
X+102000Y+027000
Y+025000
Y+024000
Y+021000
Y+022000
X+105000Y+026000
Y+023000
Y+020000
X+102000Y+026000
Y+023000
Y+020000
X+105000Y+065000
Y+064000
Y+062000
Y+061000
X+102000Y+065000
Y+064000
Y+062000
Y+061000
X+105000Y+066000
Y+063000
Y+060000
X+102000Y+063000
Y+066000
Y+060000
X+098750Y+064000
Y+060000
X+113000Y+027000
Y+025000
Y+024000
Y+022000
Y+021000
X+110000Y+027000
Y+025000
Y+024000
Y+021000
Y+022000
X+113000Y+026000
Y+023000
Y+020000
X+110000Y+026000
Y+023000
Y+020000
X+113000Y+067000
Y+065000
Y+064000
Y+062000
Y+061000
X+110000Y+067000
Y+065000
Y+064000
Y+061000
Y+062000
X+113000Y+066000
Y+063000
Y+060000
X+110000Y+066000
Y+063000
Y+060000
X+123500Y+027750
Y+025000
X+129000Y+027000
Y+025000
Y+024000
Y+022000
Y+021000
X+126000Y+027000
Y+025000
Y+024000
Y+021000
Y+022000
X+129000Y+026000
Y+023000
Y+020000
X+126000Y+026000
Y+023000
Y+020000
X+132000Y+064000
Y+061000
X+139500Y+027750
Y+025000
X+137000Y+027000
Y+025000
Y+024000
Y+022000
Y+021000
X+134000Y+027000
Y+025000
Y+024000
Y+021000
Y+022000
X+137000Y+026000
Y+023000
Y+020000
X+134000Y+026000
Y+023000
Y+020000
X+135500Y+084500
Y+092500
X+154750Y+027750
Y+025000
X+153000Y+027000
Y+025000
Y+024000
Y+022000
Y+021000
X+150000Y+027000
Y+025000
Y+024000
Y+021000
Y+022000
X+153000Y+026000
Y+023000
Y+020000
X+150000Y+026000
Y+023000
Y+020000
X+021500Y+061500
X+025500
X+021500Y+064500
X+025500
X+045500Y+093500
X+049500
X+037500
X+041500
X+021500
X+025500
X+045500Y+098000
X+049500
X+041500
X+037500
X+025500
X+021500
X+071500Y+028750
X+075500
X+071500Y+030750
X+075500
X+129000Y+073500
X+125000
X+109500Y+076250
X+113500
X+025000Y+046000
Y+045000
Y+043000
Y+042000
X+022000Y+046000
Y+045000
Y+043000
Y+042000
X+025000Y+047000
Y+044000
Y+041000
X+022000Y+044000
Y+047000
Y+041000
X+049000Y+048000
Y+046000
Y+045000
Y+043000
Y+042000
X+046000Y+048000
Y+046000
Y+045000
Y+042000
Y+043000
X+049000Y+047000
Y+044000
Y+041000
X+046000Y+047000
Y+044000
Y+041000
X+021500Y+060500
X+025500
X+021500Y+062500
X+025500
X+021500Y+065500
X+025500
X+021500Y+063500
X+025500
X+049000Y+080000
Y+079000
X+046000
Y+080000
X+049000Y+081000
Y+078000
X+046000Y+081000
Y+078000
X+017750Y+087000
X+013750
X+071500Y+029750
X+075500
X+073000Y+048000
Y+046000
Y+045000
Y+043000
Y+042000
X+070000Y+048000
Y+046000
Y+045000
Y+042000
Y+043000
X+073000Y+047000
Y+044000
Y+041000
X+070000Y+047000
Y+044000
Y+041000
X+097000Y+048000
Y+046000
Y+045000
Y+043000
Y+042000
X+094000Y+048000
Y+046000
Y+045000
Y+042000
Y+043000
X+097000Y+047000
Y+044000
Y+041000
X+094000Y+047000
Y+044000
Y+041000
X+078000Y+047500
X+079000
X+081000
X+082000
X+084000
X+085000
X+087000
X+088000
X+079000Y+041500
X+078000
X+082000
X+081000
X+085000
X+084000
X+088000
X+087000
X+080000Y+047500
X+083000
X+086000
X+089000
X+080000Y+041500
X+086000
X+089000
X+083000
X+097000Y+066000
Y+065000
X+094000
Y+066000
X+097000Y+067000
Y+064000
X+094000Y+067000
Y+064000
X+073000Y+085000
Y+083000
Y+082000
Y+080000
Y+079000
X+070000Y+085000
Y+083000
Y+082000
Y+079000
Y+080000
X+073000Y+084000
Y+081000
Y+078000
X+070000Y+084000
Y+081000
Y+078000
X+097000Y+085000
Y+083000
Y+082000
Y+080000
Y+079000
X+094000Y+085000
Y+083000
Y+082000
Y+079000
Y+080000
X+097000Y+084000
Y+081000
Y+078000
X+094000Y+084000
Y+081000
Y+078000
X+121000Y+048000
Y+046000
Y+045000
Y+043000
Y+042000
X+118000Y+048000
Y+046000
Y+045000
Y+042000
Y+043000
X+121000Y+047000
Y+044000
Y+041000
X+118000Y+047000
Y+044000
Y+041000
X+145000Y+048000
Y+046000
Y+045000
Y+043000
Y+042000
X+142000Y+048000
Y+046000
Y+045000
Y+042000
Y+043000
X+145000Y+047000
Y+044000
Y+041000
X+142000Y+047000
Y+044000
Y+041000
X+122000Y+058000
X+130000
X+121000Y+080000
Y+079000
X+118000
Y+080000
X+121000Y+081000
Y+078000
X+118000Y+081000
Y+078000
X+107500Y+083500
X+115500
X+129000Y+074500
X+125000
X+129000Y+075500
X+125000
X+110500Y+088000
X+108500
X+130000
X+118000
X+030000Y+026500
X+032000
X+033000
X+035000
X+036000
X+038000
X+039000
X+041000
X+042000
X+044000
X+045000
X+047000
X+048000
X+030000Y+020500
X+032000
X+033000
X+035000
X+036000
X+038000
X+039000
X+041000
X+042000
X+044000
X+045000
X+047000
X+048000
X+031000Y+026500
X+034000
X+037000
X+040000
X+043000
X+046000
X+049000
X+031000Y+020500
X+034000
X+037000
X+040000
X+043000
X+046000
X+049000
X+025000Y+027000
Y+025000
Y+024000
Y+022000
Y+021000
X+022000Y+027000
Y+025000
Y+024000
Y+021000
Y+022000
X+025000Y+026000
Y+023000
Y+020000
X+022000Y+026000
Y+023000
Y+020000
Y+084500
X+023000
X+025000
X+026000
X+028000
X+029000
X+031000
X+032000
X+023000Y+078500
X+022000
X+026000
X+025000
X+029000
X+028000
X+032000
X+031000
X+024000Y+084500
X+027000
X+030000
X+033000
X+024000Y+078500
X+030000
X+033000
X+027000
X+049000Y+084000
Y+083000
X+046000
Y+084000
X+049000Y+085000
Y+082000
X+046000Y+085000
Y+082000
X+049000Y+065000
Y+064000
Y+062000
Y+061000
X+046000Y+065000
Y+064000
Y+062000
Y+061000
X+049000Y+066000
Y+063000
Y+060000
X+046000Y+063000
Y+066000
Y+060000
X+097000Y+027000
Y+025000
Y+024000
Y+022000
Y+021000
X+094000Y+027000
Y+025000
Y+024000
Y+021000
Y+022000
X+097000Y+026000
Y+023000
Y+020000
X+094000Y+026000
Y+023000
Y+020000
X+073000Y+065000
Y+064000
Y+062000
Y+061000
X+070000Y+065000
Y+064000
Y+062000
Y+061000
X+073000Y+066000
Y+063000
Y+060000
X+070000Y+063000
Y+066000
Y+060000
X+097000Y+062000
Y+061000
X+094000
Y+062000
X+097000Y+063000
Y+060000
X+094000Y+063000
Y+060000
X+084000Y+065750
Y+061750
X+121000Y+027000
Y+025000
Y+024000
Y+022000
Y+021000
X+118000Y+027000
Y+025000
Y+024000
Y+021000
Y+022000
X+121000Y+026000
Y+023000
Y+020000
X+118000Y+026000
Y+023000
Y+020000
X+145000Y+027000
Y+025000
Y+024000
Y+022000
Y+021000
X+142000Y+027000
Y+025000
Y+024000
Y+021000
Y+022000
X+145000Y+026000
Y+023000
Y+020000
X+142000Y+026000
Y+023000
Y+020000
X+121000Y+084000
Y+083000
X+118000
Y+084000
X+121000Y+085000
Y+082000
X+118000Y+085000
Y+082000
X+121000Y+067000
Y+065000
Y+064000
Y+062000
Y+061000
X+118000Y+067000
Y+065000
Y+064000
Y+061000
Y+062000
X+121000Y+066000
Y+063000
Y+060000
X+118000Y+066000
Y+063000
Y+060000
X+129000Y+065000
Y+064000
Y+062000
Y+061000
X+126000Y+065000
Y+064000
Y+062000
Y+061000
X+129000Y+066000
Y+063000
Y+060000
X+126000Y+063000
Y+066000
Y+060000
X+054000Y+026500
X+056000
X+057000
X+059000
X+060000
X+062000
X+063000
X+065000
X+066000
X+068000
X+069000
X+071000
X+072000
X+054000Y+020500
X+056000
X+057000
X+059000
X+060000
X+062000
X+063000
X+065000
X+066000
X+068000
X+069000
X+071000
X+072000
X+055000Y+026500
X+058000
X+061000
X+064000
X+067000
X+070000
X+073000
X+055000Y+020500
X+058000
X+061000
X+064000
X+067000
X+070000
X+073000
T03
X+136000Y+074750
Y+078750
X+143000Y+074750
Y+078750
X+138250Y+083000
X+140750
X+139500
X+140750Y+088500
X+138250
X+139500
X+140750Y+094500
X+138250
X+139500
X+138250Y+078750
Y+074750
X+140750Y+078750
Y+074750
X+160500Y+049181
Y+050740
Y+046063
Y+047622
Y+042945
Y+044504
Y+041386
Y+038268
Y+035150
Y+032031
Y+028913
Y+025795
Y+022677
Y+019559
Y+039827
Y+036709
Y+033591
Y+030472
Y+027354
Y+024236
Y+021118
Y+018000
X+159098Y+049181
Y+050740
Y+046063
Y+047622
Y+042945
Y+044504
Y+041386
Y+038268
Y+035150
Y+032031
Y+028913
Y+025795
Y+022677
Y+019559
Y+039827
Y+036709
Y+033591
Y+030472
Y+027354
Y+024236
Y+021118
Y+018000
T04
X+107500Y+094000
X+134500
X+135000Y+055000
X+157000
X+157500Y+065000
X+135500
X+154475Y+089985
X+157515Y+093025
T05
X+149000Y+074750
Y+078750
X+163500Y+064455
Y+066014
Y+067573
Y+069132
Y+072250
Y+070691
X+019177Y+097500
X+017618
X+014500
X+016059
X+153500Y+078750
Y+074750
X+162500
Y+078750
X+158000
Y+074750
T06
X+096000Y+051000
X+012000Y+013000
X+156000
T07
X+012000Y+099000
X+144000Y+097000
T08
X+152303Y+095197
X+160697Y+086803
T00
M30
