M48
;FILE_FORMAT=2:4
INCH
;TYPE=PLATED
T01C0.024
T02C0.035
T03C0.244
%
T01
X+013000Y+019000
X+017250Y+008650
X+018750
X+020250
X+021800
X+027750Y+010500
X+031250Y+008650
X+034000
X+035500
Y+010500
X+037500Y+008650
Y+009500
X+026250Y+009250
X+028250
X+029750Y+008650
X+027250Y+009250
X+039000Y+008750
X+042250Y+009000
T02
X+009750Y+016500
Y+012500
X+007500Y+010000
X+007000Y+010750
X+006500Y+010000
X+009750
X+008750
X+004750Y+014250
X+008750
X+031000Y+021750
X+027000
X+007500Y+012250
X+007000Y+013000
X+006500Y+012250
X+008750Y+020750
Y+015750
X+019750Y+017250
Y+016250
Y+014250
Y+013250
X+016750Y+017250
Y+016250
Y+014250
Y+013250
X+019750Y+018250
Y+015250
Y+012250
X+016750Y+015250
Y+018250
Y+012250
X+030750Y+019250
Y+017250
Y+016250
Y+014250
Y+013250
X+027750Y+019250
Y+017250
Y+016250
Y+013250
Y+014250
X+030750Y+018250
Y+015250
Y+012250
X+027750Y+018250
Y+015250
Y+012250
X+036250Y+017250
Y+016250
Y+014250
Y+013250
X+033250Y+017250
Y+016250
Y+014250
Y+013250
X+036250Y+018250
Y+015250
Y+012250
X+033250Y+015250
Y+018250
Y+012250
X+041750Y+017250
Y+016250
Y+014250
Y+013250
X+038750Y+017250
Y+016250
Y+014250
Y+013250
X+041750Y+018250
Y+015250
Y+012250
X+038750Y+015250
Y+018250
Y+012250
X+015000Y+010000
X+011000
X+015000Y+016750
X+011000
Y+019750
X+015000
X+011000Y+018750
X+015000
X+025750Y+021750
X+021750
X+011250
X+014750
X+015000Y+020750
X+011000
X+015000Y+017750
X+011000
X+025250Y+019250
Y+017250
Y+016250
Y+014250
Y+013250
X+022250Y+019250
Y+017250
Y+016250
Y+013250
Y+014250
X+025250Y+018250
Y+015250
Y+012250
X+022250Y+018250
Y+015250
Y+012250
X+014500Y+014250
Y+013250
X+011500
Y+014250
X+014500Y+015250
Y+012250
X+011500Y+015250
Y+012250
T03
X+006500Y+021750
Y+017250
T00
M30
